<?xml version="1.0" standalone="yes"?>

<svg version="1.1" viewBox="0.0 0.0 396.51181102362204 180.0" fill="none" stroke="none" stroke-linecap="square" stroke-miterlimit="10" xmlns="http://www.w3.org/2000/svg" xmlns:xlink="http://www.w3.org/1999/xlink"><clipPath id="p.0"><path d="m0 0l396.5118 0l0 180.0l-396.5118 0l0 -180.0z" clip-rule="nonzero"></path></clipPath><g clip-path="url(#p.0)"><path fill="#000000" fill-opacity="0.0" d="m0 0l396.5118 0l0 180.0l-396.5118 0z" fill-rule="nonzero"></path><path fill="#d9ead3" d="m10.299256 51.324146l0 0c0 -15.646618 12.684091 -28.330708 28.330711 -28.330708l0 0c7.513771 0 14.719795 2.9848328 20.032833 8.297873c5.3130417 5.31304 8.297871 12.519064 8.297871 20.032835l0 0c0 15.646618 -12.684086 28.330708 -28.330704 28.330708l0 0c-15.64662 0 -28.330711 -12.68409 -28.330711 -28.330708z" fill-rule="nonzero"></path><path stroke="#000000" stroke-width="1.0" stroke-linejoin="round" stroke-linecap="butt" d="m10.299256 51.324146l0 0c0 -15.646618 12.684091 -28.330708 28.330711 -28.330708l0 0c7.513771 0 14.719795 2.9848328 20.032833 8.297873c5.3130417 5.31304 8.297871 12.519064 8.297871 20.032835l0 0c0 15.646618 -12.684086 28.330708 -28.330704 28.330708l0 0c-15.64662 0 -28.330711 -12.68409 -28.330711 -28.330708z" fill-rule="nonzero"></path><path fill="#fff2cc" d="m118.5604 34.872868l0 0c0 -4.5430317 3.6828613 -8.225885 8.225891 -8.225885l91.67422 0c2.1816406 0 4.273926 0.86665344 5.816574 2.4093056c1.5426483 1.542654 2.4093018 3.6349392 2.4093018 5.81658l0 32.90256c0 4.54303 -3.682846 8.2258835 -8.225876 8.2258835l-91.67422 0c-4.54303 0 -8.225891 -3.6828537 -8.225891 -8.2258835z" fill-rule="nonzero"></path><path stroke="#000000" stroke-width="1.0" stroke-linejoin="round" stroke-linecap="butt" d="m118.5604 34.872868l0 0c0 -4.5430317 3.6828613 -8.225885 8.225891 -8.225885l91.67422 0c2.1816406 0 4.273926 0.86665344 5.816574 2.4093056c1.5426483 1.542654 2.4093018 3.6349392 2.4093018 5.81658l0 32.90256c0 4.54303 -3.682846 8.2258835 -8.225876 8.2258835l-91.67422 0c-4.54303 0 -8.225891 -3.6828537 -8.225891 -8.2258835z" fill-rule="nonzero"></path><path fill="#000000" d="m154.87418 47.155396l-0.171875 6.53125l-0.984375 0l-0.1875 -6.53125l1.34375 0zm-0.671875 7.40625q0.171875 0 0.3125 0.078125q0.15625 0.0625 0.265625 0.171875q0.125 0.109375 0.1875 0.265625q0.0625 0.15625 0.0625 0.328125q0 0.171875 -0.0625 0.328125q-0.0625 0.15625 -0.1875 0.265625q-0.109375 0.109375 -0.265625 0.171875q-0.140625 0.0625 -0.3125 0.0625q-0.171875 0 -0.328125 -0.0625q-0.15625 -0.0625 -0.28125 -0.171875q-0.109375 -0.109375 -0.171875 -0.265625q-0.0625 -0.15625 -0.0625 -0.328125q0 -0.171875 0.0625 -0.328125q0.0625 -0.15625 0.171875 -0.265625q0.125 -0.109375 0.28125 -0.171875q0.15625 -0.078125 0.328125 -0.078125zm10.437241 -6.375q-0.875 -0.1875 -1.5 -0.1875q-1.484375 0 -1.484375 1.5625l0 1.109375l2.78125 0l0 0.921875l-2.78125 0l0 4.53125l-1.125 0l0 -4.53125l-2.046875 0l0 -0.921875l2.046875 0l0 -1.046875q0 -2.546875 2.65625 -2.546875q0.65625 0 1.453125 0.15625l0 0.953125zm-6.671875 1.5625l0 0zm10.515366 0.921875l-1.890625 0l0 -0.921875l3.0 0l0 5.453125l1.90625 0l0 0.921875l-5.109375 0l0 -0.921875l2.09375 0l0 -4.53125zm0.390625 -3.59375q0.1875 0 0.34375 0.078125q0.15625 0.0625 0.265625 0.1875q0.125 0.109375 0.1875 0.265625q0.0625 0.15625 0.0625 0.34375q0 0.171875 -0.0625 0.328125q-0.0625 0.15625 -0.1875 0.28125q-0.109375 0.125 -0.265625 0.1875q-0.15625 0.0625 -0.34375 0.0625q-0.1875 0 -0.34375 -0.0625q-0.15625 -0.0625 -0.28125 -0.1875q-0.109375 -0.125 -0.1875 -0.28125q-0.0625 -0.15625 -0.0625 -0.328125q0 -0.1875 0.0625 -0.34375q0.078125 -0.15625 0.1875 -0.265625q0.125 -0.125 0.28125 -0.1875q0.15625 -0.078125 0.34375 -0.078125zm5.0309906 2.671875l1.0 0l0.03125 1.171875q0.5625 -0.671875 1.109375 -0.96875q0.5625 -0.3125 1.109375 -0.3125q1.0 0 1.5 0.640625q0.515625 0.640625 0.484375 1.90625l-1.125 0q0.03125 -0.84375 -0.234375 -1.21875q-0.265625 -0.375 -0.78125 -0.375q-0.21875 0 -0.453125 0.078125q-0.21875 0.078125 -0.453125 0.25q-0.234375 0.171875 -0.5 0.453125q-0.265625 0.265625 -0.578125 0.65625l0 4.09375l-1.109375 0l0 -6.375zm12.109116 4.640625q0 0.328125 -0.125 0.59375q-0.109375 0.265625 -0.3125 0.484375q-0.1875 0.203125 -0.453125 0.34375q-0.25 0.140625 -0.546875 0.25q-0.296875 0.09375 -0.609375 0.125q-0.3125 0.046875 -0.609375 0.046875q-0.640625 0 -1.1875 -0.0625q-0.546875 -0.046875 -1.0625 -0.171875l0 -1.015625q0.5625 0.15625 1.109375 0.25q0.546875 0.078125 1.09375 0.078125q0.796875 0 1.171875 -0.21875q0.390625 -0.21875 0.390625 -0.625q0 -0.171875 -0.0625 -0.296875q-0.0625 -0.140625 -0.21875 -0.265625q-0.15625 -0.125 -0.5 -0.25q-0.328125 -0.140625 -0.90625 -0.3125q-0.421875 -0.125 -0.796875 -0.28125q-0.359375 -0.171875 -0.625 -0.390625q-0.265625 -0.21875 -0.421875 -0.515625q-0.15625 -0.296875 -0.15625 -0.703125q0 -0.265625 0.125 -0.578125q0.125 -0.328125 0.421875 -0.59375q0.296875 -0.28125 0.796875 -0.453125q0.515625 -0.1875 1.28125 -0.1875q0.375 0 0.828125 0.046875q0.453125 0.03125 0.953125 0.140625l0 0.984375q-0.515625 -0.140625 -0.984375 -0.1875q-0.46875 -0.0625 -0.8125 -0.0625q-0.40625 0 -0.6875 0.0625q-0.28125 0.0625 -0.46875 0.171875q-0.171875 0.109375 -0.25 0.265625q-0.0625 0.140625 -0.0625 0.3125q0 0.171875 0.0625 0.3125q0.0625 0.140625 0.234375 0.28125q0.1875 0.125 0.515625 0.25q0.328125 0.125 0.84375 0.28125q0.5625 0.171875 0.953125 0.359375q0.390625 0.171875 0.625 0.390625q0.25 0.21875 0.34375 0.5q0.109375 0.28125 0.109375 0.640625zm7.4216156 1.640625q-0.375 0.09375 -0.78125 0.140625q-0.390625 0.046875 -0.8125 0.046875q-1.203125 0 -1.796875 -0.546875q-0.578125 -0.546875 -0.578125 -1.671875l0 -3.328125l-1.78125 0l0 -0.921875l1.78125 0l0 -1.75l1.09375 -0.28125l0 2.03125l2.875 0l0 0.921875l-2.875 0l0 3.25q0 0.671875 0.359375 1.015625q0.375 0.34375 1.09375 0.34375q0.296875 0 0.65625 -0.046875q0.359375 -0.046875 0.765625 -0.15625l0 0.953125z" fill-rule="nonzero"></path><path fill="#000000" fill-opacity="0.0" d="m66.96067 51.324146l51.590553 0" fill-rule="nonzero"></path><path stroke="#000000" stroke-width="2.0" stroke-linejoin="round" stroke-linecap="butt" d="m66.96068 51.324146l39.590546 0" fill-rule="evenodd"></path><path fill="#000000" stroke="#000000" stroke-width="2.0" stroke-linecap="butt" d="m106.55122 54.627613l9.076195 -3.3034668l-9.076195 -3.303463z" fill-rule="evenodd"></path><path fill="#fff2cc" d="m278.28613 34.872868l0 0c0 -4.5430317 3.6828308 -8.225885 8.225861 -8.225885l91.674225 0c2.1816406 0 4.273926 0.86665344 5.8165894 2.4093056c1.542633 1.542654 2.4093018 3.6349392 2.4093018 5.81658l0 32.90256c0 4.54303 -3.6828613 8.2258835 -8.225891 8.2258835l-91.674225 0c-4.54303 0 -8.225861 -3.6828537 -8.225861 -8.2258835z" fill-rule="nonzero"></path><path stroke="#000000" stroke-width="1.0" stroke-linejoin="round" stroke-linecap="butt" d="m278.28613 34.872868l0 0c0 -4.5430317 3.6828308 -8.225885 8.225861 -8.225885l91.674225 0c2.1816406 0 4.273926 0.86665344 5.8165894 2.4093056c1.542633 1.542654 2.4093018 3.6349392 2.4093018 5.81658l0 32.90256c0 4.54303 -3.6828613 8.2258835 -8.225891 8.2258835l-91.674225 0c-4.54303 0 -8.225861 -3.6828537 -8.225861 -8.2258835z" fill-rule="nonzero"></path><path fill="#000000" d="m310.93597 47.155396l-0.171875 6.53125l-0.984375 0l-0.1875 -6.53125l1.34375 0zm-0.671875 7.40625q0.171875 0 0.3125 0.078125q0.15625 0.0625 0.265625 0.171875q0.125 0.109375 0.1875 0.265625q0.0625 0.15625 0.0625 0.328125q0 0.171875 -0.0625 0.328125q-0.0625 0.15625 -0.1875 0.265625q-0.109375 0.109375 -0.265625 0.171875q-0.140625 0.0625 -0.3125 0.0625q-0.171875 0 -0.328125 -0.0625q-0.15625 -0.0625 -0.28125 -0.171875q-0.109375 -0.109375 -0.171875 -0.265625q-0.0625 -0.15625 -0.0625 -0.328125q0 -0.171875 0.0625 -0.328125q0.0625 -0.15625 0.171875 -0.265625q0.125 -0.109375 0.28125 -0.171875q0.15625 -0.078125 0.328125 -0.078125zm9.82785 -0.171875q0 0.328125 -0.125 0.59375q-0.109375 0.265625 -0.3125 0.484375q-0.1875 0.203125 -0.453125 0.34375q-0.25 0.140625 -0.546875 0.25q-0.296875 0.09375 -0.609375 0.125q-0.3125 0.046875 -0.609375 0.046875q-0.640625 0 -1.1875 -0.0625q-0.546875 -0.046875 -1.0625 -0.171875l0 -1.015625q0.5625 0.15625 1.109375 0.25q0.546875 0.078125 1.09375 0.078125q0.796875 0 1.171875 -0.21875q0.390625 -0.21875 0.390625 -0.625q0 -0.171875 -0.0625 -0.296875q-0.0625 -0.140625 -0.21875 -0.265625q-0.15625 -0.125 -0.5 -0.25q-0.328125 -0.140625 -0.90625 -0.3125q-0.421875 -0.125 -0.796875 -0.28125q-0.359375 -0.171875 -0.625 -0.390625q-0.265625 -0.21875 -0.421875 -0.515625q-0.15625 -0.296875 -0.15625 -0.703125q0 -0.265625 0.125 -0.578125q0.125 -0.328125 0.421875 -0.59375q0.296875 -0.28125 0.796875 -0.453125q0.515625 -0.1875 1.28125 -0.1875q0.375 0 0.828125 0.046875q0.453125 0.03125 0.953125 0.140625l0 0.984375q-0.515625 -0.140625 -0.984375 -0.1875q-0.46875 -0.0625 -0.8125 -0.0625q-0.40625 0 -0.6875 0.0625q-0.28125 0.0625 -0.46875 0.171875q-0.171875 0.109375 -0.25 0.265625q-0.0625 0.140625 -0.0625 0.3125q0 0.171875 0.0625 0.3125q0.0625 0.140625 0.234375 0.28125q0.1875 0.125 0.515625 0.25q0.328125 0.125 0.84375 0.28125q0.5625 0.171875 0.953125 0.359375q0.390625 0.171875 0.625 0.390625q0.25 0.21875 0.34375 0.5q0.109375 0.28125 0.109375 0.640625zm7.671631 -1.78125q0 0.234375 -0.015625 0.390625q0 0.15625 -0.015625 0.296875l-4.484375 0q0 0.96875 0.546875 1.5q0.546875 0.515625 1.578125 0.515625q0.28125 0 0.5625 -0.015625q0.28125 -0.015625 0.53125 -0.046875q0.265625 -0.046875 0.5 -0.09375q0.25 -0.046875 0.453125 -0.109375l0 0.90625q-0.453125 0.125 -1.03125 0.203125q-0.5625 0.078125 -1.171875 0.078125q-0.8125 0 -1.40625 -0.21875q-0.59375 -0.21875 -0.96875 -0.640625q-0.375 -0.421875 -0.5625 -1.03125q-0.171875 -0.625 -0.171875 -1.390625q0 -0.671875 0.1875 -1.265625q0.1875 -0.609375 0.5625 -1.0625q0.375 -0.453125 0.90625 -0.71875q0.546875 -0.265625 1.234375 -0.265625q0.65625 0 1.171875 0.21875q0.515625 0.203125 0.859375 0.59375q0.359375 0.375 0.546875 0.921875q0.1875 0.546875 0.1875 1.234375zm-1.15625 -0.171875q0.015625 -0.421875 -0.09375 -0.765625q-0.09375 -0.359375 -0.3125 -0.609375q-0.203125 -0.25 -0.53125 -0.390625q-0.3125 -0.15625 -0.71875 -0.15625q-0.375 0 -0.671875 0.140625q-0.296875 0.140625 -0.515625 0.40625q-0.203125 0.25 -0.34375 0.609375q-0.125 0.34375 -0.171875 0.765625l3.359375 0zm8.0466 3.453125q-0.4375 0.171875 -0.890625 0.25q-0.453125 0.078125 -0.9375 0.078125q-1.5 0 -2.328125 -0.8125q-0.8125 -0.828125 -0.8125 -2.40625q0 -0.75 0.234375 -1.359375q0.234375 -0.625 0.65625 -1.0625q0.4375 -0.4375 1.015625 -0.671875q0.59375 -0.25 1.3125 -0.25q0.484375 0 0.921875 0.078125q0.4375 0.0625 0.828125 0.234375l0 1.046875q-0.421875 -0.21875 -0.84375 -0.3125q-0.421875 -0.09375 -0.890625 -0.09375q-0.421875 0 -0.796875 0.15625q-0.375 0.15625 -0.671875 0.46875q-0.28125 0.296875 -0.453125 0.734375q-0.15625 0.4375 -0.15625 1.0q0 1.15625 0.5625 1.734375q0.5625 0.5625 1.5625 0.5625q0.453125 0 0.875 -0.09375q0.421875 -0.109375 0.8125 -0.3125l0 1.03125zm7.921631 -3.0q0 0.734375 -0.21875 1.359375q-0.203125 0.625 -0.59375 1.0625q-0.390625 0.4375 -0.953125 0.6875q-0.5625 0.234375 -1.28125 0.234375q-0.6875 0 -1.234375 -0.203125q-0.546875 -0.21875 -0.921875 -0.625q-0.375 -0.421875 -0.578125 -1.03125q-0.203125 -0.609375 -0.203125 -1.40625q0 -0.734375 0.203125 -1.34375q0.21875 -0.609375 0.609375 -1.046875q0.40625 -0.453125 0.96875 -0.6875q0.5625 -0.25 1.28125 -0.25q0.6875 0 1.21875 0.21875q0.546875 0.203125 0.921875 0.609375q0.375 0.40625 0.578125 1.015625q0.203125 0.609375 0.203125 1.40625zm-1.125 0.046875q0 -0.59375 -0.140625 -1.03125q-0.125 -0.4375 -0.375 -0.734375q-0.234375 -0.296875 -0.578125 -0.4375q-0.34375 -0.15625 -0.765625 -0.15625q-0.5 0 -0.859375 0.203125q-0.34375 0.1875 -0.578125 0.515625q-0.21875 0.3125 -0.328125 0.75q-0.09375 0.421875 -0.09375 0.890625q0 0.59375 0.125 1.046875q0.125 0.4375 0.359375 0.734375q0.25 0.28125 0.59375 0.4375q0.34375 0.15625 0.78125 0.15625q0.484375 0 0.84375 -0.1875q0.359375 -0.203125 0.578125 -0.53125q0.21875 -0.328125 0.328125 -0.75q0.109375 -0.421875 0.109375 -0.90625zm2.9059753 -3.1875l0.984375 0l0.046875 1.03125q0.28125 -0.328125 0.53125 -0.546875q0.265625 -0.21875 0.515625 -0.34375q0.25 -0.140625 0.5 -0.1875q0.265625 -0.0625 0.546875 -0.0625q0.984375 0 1.484375 0.578125q0.515625 0.578125 0.515625 1.75l0 4.15625l-1.109375 0l0 -4.0625q0 -0.75 -0.28125 -1.109375q-0.28125 -0.359375 -0.828125 -0.359375q-0.203125 0 -0.40625 0.0625q-0.1875 0.046875 -0.40625 0.203125q-0.203125 0.15625 -0.453125 0.40625q-0.234375 0.25 -0.53125 0.625l0 4.234375l-1.109375 0l0 -6.375zm6.9997253 3.328125q0 -0.8125 0.21875 -1.4375q0.234375 -0.640625 0.640625 -1.078125q0.40625 -0.4375 0.984375 -0.65625q0.578125 -0.234375 1.28125 -0.234375q0.296875 0 0.59375 0.046875q0.296875 0.03125 0.578125 0.109375l0 -2.671875l1.109375 0l0 8.96875l-0.984375 0l-0.03125 -1.203125q-0.46875 0.671875 -1.015625 1.0q-0.53125 0.3125 -1.15625 0.3125q-0.546875 0 -0.96875 -0.21875q-0.40625 -0.234375 -0.6875 -0.640625q-0.28125 -0.421875 -0.421875 -1.0q-0.140625 -0.59375 -0.140625 -1.296875zm1.140625 -0.078125q0 1.15625 0.328125 1.734375q0.34375 0.5625 0.96875 0.5625q0.421875 0 0.875 -0.375q0.46875 -0.375 0.984375 -1.109375l0 -2.96875q-0.265625 -0.125 -0.59375 -0.1875q-0.328125 -0.0625 -0.65625 -0.0625q-0.90625 0 -1.40625 0.578125q-0.5 0.578125 -0.5 1.828125z" fill-rule="nonzero"></path><path fill="#000000" fill-opacity="0.0" d="m226.68639 51.324146l51.59056 0" fill-rule="nonzero"></path><path stroke="#000000" stroke-width="2.0" stroke-linejoin="round" stroke-linecap="butt" d="m226.68639 51.324146l39.59056 0" fill-rule="evenodd"></path><path fill="#000000" stroke="#000000" stroke-width="2.0" stroke-linecap="butt" d="m266.27695 54.627613l9.076202 -3.3034668l-9.076202 -3.303463z" fill-rule="evenodd"></path><path fill="#fff2cc" d="m278.2848 122.06972l0 0c0 -4.54303 3.6828613 -8.2258835 8.225891 -8.2258835l91.674225 0c2.1816406 0 4.273926 0.86665344 5.816559 2.4093018c1.5426636 1.542656 2.4093323 3.634941 2.4093323 5.8165817l0 32.902557c0 4.54303 -3.6828613 8.225891 -8.225891 8.225891l-91.674225 0c-4.54303 0 -8.225891 -3.6828613 -8.225891 -8.225891z" fill-rule="nonzero"></path><path stroke="#000000" stroke-width="1.0" stroke-linejoin="round" stroke-linecap="butt" d="m278.2848 122.06972l0 0c0 -4.54303 3.6828613 -8.2258835 8.225891 -8.2258835l91.674225 0c2.1816406 0 4.273926 0.86665344 5.816559 2.4093018c1.5426636 1.542656 2.4093323 3.634941 2.4093323 5.8165817l0 32.902557c0 4.54303 -3.6828613 8.225891 -8.225891 8.225891l-91.674225 0c-4.54303 0 -8.225891 -3.6828613 -8.225891 -8.225891z" fill-rule="nonzero"></path><path fill="#000000" d="m314.59857 134.35225l-0.171875 6.53125l-0.984375 0l-0.1875 -6.53125l1.34375 0zm-0.671875 7.40625q0.171875 0 0.3125 0.078125q0.15625 0.0625 0.265625 0.171875q0.125 0.109375 0.1875 0.265625q0.0625 0.15625 0.0625 0.328125q0 0.171875 -0.0625 0.328125q-0.0625 0.15625 -0.1875 0.265625q-0.109375 0.109375 -0.265625 0.171875q-0.140625 0.0625 -0.3125 0.0625q-0.171875 0 -0.328125 -0.0625q-0.15625 -0.0625 -0.28125 -0.171875q-0.109375 -0.109375 -0.171875 -0.265625q-0.0625 -0.15625 -0.0625 -0.328125q0 -0.171875 0.0625 -0.328125q0.0625 -0.15625 0.171875 -0.265625q0.125 -0.109375 0.28125 -0.171875q0.15625 -0.078125 0.328125 -0.078125zm9.921631 1.46875q-0.375 0.09375 -0.78125 0.140625q-0.390625 0.046875 -0.8125 0.046875q-1.203125 0 -1.796875 -0.546875q-0.578125 -0.546875 -0.578125 -1.671875l0 -3.328125l-1.78125 0l0 -0.921875l1.78125 0l0 -1.75l1.09375 -0.28125l0 2.03125l2.875 0l0 0.921875l-2.875 0l0 3.25q0 0.671875 0.359375 1.015625q0.375 0.34375 1.09375 0.34375q0.296875 0 0.65625 -0.046875q0.359375 -0.046875 0.765625 -0.15625l0 0.953125zm7.3122253 0.09375l-1.109375 0l0 -4.0625q0 -0.75 -0.28125 -1.109375q-0.265625 -0.359375 -0.78125 -0.359375q-0.21875 0 -0.421875 0.0625q-0.1875 0.046875 -0.40625 0.203125q-0.203125 0.15625 -0.453125 0.40625q-0.25 0.25 -0.5625 0.625l0 4.234375l-1.109375 0l0 -8.96875l1.109375 0l0 2.59375l-0.046875 1.0q0.265625 -0.3125 0.515625 -0.515625q0.25 -0.21875 0.5 -0.34375q0.25 -0.140625 0.5 -0.1875q0.265625 -0.0625 0.546875 -0.0625q0.953125 0 1.46875 0.578125q0.53125 0.578125 0.53125 1.75l0 4.15625zm4.374756 -5.453125l-1.890625 0l0 -0.921875l3.0 0l0 5.453125l1.90625 0l0 0.921875l-5.109375 0l0 -0.921875l2.09375 0l0 -4.53125zm0.390625 -3.59375q0.1875 0 0.34375 0.078125q0.15625 0.0625 0.265625 0.1875q0.125 0.109375 0.1875 0.265625q0.0625 0.15625 0.0625 0.34375q0 0.171875 -0.0625 0.328125q-0.0625 0.15625 -0.1875 0.28125q-0.109375 0.125 -0.265625 0.1875q-0.15625 0.0625 -0.34375 0.0625q-0.1875 0 -0.34375 -0.0625q-0.15625 -0.0625 -0.28125 -0.1875q-0.109375 -0.125 -0.1875 -0.28125q-0.0625 -0.15625 -0.0625 -0.328125q0 -0.1875 0.0625 -0.34375q0.078125 -0.15625 0.1875 -0.265625q0.125 -0.125 0.28125 -0.1875q0.15625 -0.078125 0.34375 -0.078125zm5.0309753 2.671875l1.0 0l0.03125 1.171875q0.5625 -0.671875 1.109375 -0.96875q0.5625 -0.3125 1.109375 -0.3125q1.0 0 1.5 0.640625q0.515625 0.640625 0.484375 1.90625l-1.125 0q0.03125 -0.84375 -0.234375 -1.21875q-0.265625 -0.375 -0.78125 -0.375q-0.21875 0 -0.453125 0.078125q-0.21875 0.078125 -0.453125 0.25q-0.234375 0.171875 -0.5 0.453125q-0.265625 0.265625 -0.578125 0.65625l0 4.09375l-1.109375 0l0 -6.375zm6.734131 3.328125q0 -0.8125 0.21875 -1.4375q0.234375 -0.640625 0.640625 -1.078125q0.40625 -0.4375 0.984375 -0.65625q0.578125 -0.234375 1.28125 -0.234375q0.296875 0 0.59375 0.046875q0.296875 0.03125 0.578125 0.109375l0 -2.671875l1.109375 0l0 8.96875l-0.984375 0l-0.03125 -1.203125q-0.46875 0.671875 -1.015625 1.0q-0.53125 0.3125 -1.15625 0.3125q-0.546875 0 -0.96875 -0.21875q-0.40625 -0.234375 -0.6875 -0.640625q-0.28125 -0.421875 -0.421875 -1.0q-0.140625 -0.59375 -0.140625 -1.296875zm1.140625 -0.078125q0 1.15625 0.328125 1.734375q0.34375 0.5625 0.96875 0.5625q0.421875 0 0.875 -0.375q0.46875 -0.375 0.984375 -1.109375l0 -2.96875q-0.265625 -0.125 -0.59375 -0.1875q-0.328125 -0.0625 -0.65625 -0.0625q-0.90625 0 -1.40625 0.578125q-0.5 0.578125 -0.5 1.828125z" fill-rule="nonzero"></path><path fill="#000000" fill-opacity="0.0" d="m172.6234 76.00131l0 62.519684l105.6693 0" fill-rule="nonzero"></path><path stroke="#000000" stroke-width="2.0" stroke-linejoin="round" stroke-linecap="butt" d="m172.6234 76.00131l0 62.519684l93.6693 0" fill-rule="evenodd"></path><path fill="#000000" stroke="#000000" stroke-width="2.0" stroke-linecap="butt" d="m266.2927 141.82446l9.076202 -3.3034668l-9.076202 -3.3034668z" fill-rule="evenodd"></path></g></svg>

