<?xml version="1.0" standalone="yes"?>

<svg version="1.1" viewBox="0.0 0.0 497.4199475065617 105.64829396325459" fill="none" stroke="none" stroke-linecap="square" stroke-miterlimit="10" xmlns="http://www.w3.org/2000/svg" xmlns:xlink="http://www.w3.org/1999/xlink"><clipPath id="p.0"><path d="m0 0l497.41995 0l0 105.64829l-497.41995 0l0 -105.64829z" clip-rule="nonzero"></path></clipPath><g clip-path="url(#p.0)"><path fill="#000000" fill-opacity="0.0" d="m0 0l497.41995 0l0 105.64829l-497.41995 0z" fill-rule="nonzero"></path><path fill="#d9ead3" d="m10.299227 42.42741l0 0c0 -10.73259 8.700481 -19.433071 19.433071 -19.433071l0 0c5.1539707 0 10.096849 2.0474052 13.741255 5.6918144c3.6444092 3.6444054 5.6918144 8.587284 5.6918144 13.741257l0 0c0 10.732586 -8.700481 19.433071 -19.43307 19.433071l0 0c-10.73259 0 -19.433071 -8.700485 -19.433071 -19.433071z" fill-rule="nonzero"></path><path stroke="#000000" stroke-width="1.0" stroke-linejoin="round" stroke-linecap="butt" d="m10.299227 42.42741l0 0c0 -10.73259 8.700481 -19.433071 19.433071 -19.433071l0 0c5.1539707 0 10.096849 2.0474052 13.741255 5.6918144c3.6444092 3.6444054 5.6918144 8.587284 5.6918144 13.741257l0 0c0 10.732586 -8.700481 19.433071 -19.43307 19.433071l0 0c-10.73259 0 -19.433071 -8.700485 -19.433071 -19.433071z" fill-rule="nonzero"></path><path fill="#fff2cc" d="m84.52979 31.13733l0 0c0 -3.1137295 2.5241776 -5.637907 5.637909 -5.637907l62.865913 0c1.4952698 0 2.9292908 0.59399223 3.9866028 1.6513042c1.057312 1.0573139 1.6513062 2.4913368 1.6513062 3.9866028l0 22.550957c0 3.1137314 -2.52417 5.637909 -5.637909 5.637909l-62.865913 0c-3.1137314 0 -5.637909 -2.5241776 -5.637909 -5.637909z" fill-rule="nonzero"></path><path stroke="#000000" stroke-width="1.0" stroke-linejoin="round" stroke-linecap="butt" d="m84.52979 31.13733l0 0c0 -3.1137295 2.5241776 -5.637907 5.637909 -5.637907l62.865913 0c1.4952698 0 2.9292908 0.59399223 3.9866028 1.6513042c1.057312 1.0573139 1.6513062 2.4913368 1.6513062 3.9866028l0 22.550957c0 3.1137314 -2.52417 5.637909 -5.637909 5.637909l-62.865913 0c-3.1137314 0 -5.637909 -2.5241776 -5.637909 -5.637909z" fill-rule="nonzero"></path><path fill="#000000" d="m105.71394 38.651558l-0.15625 6.03125l-0.90625 0l-0.171875 -6.03125l1.234375 0zm-0.625 6.84375q0.171875 0 0.3125 0.0625q0.140625 0.0625 0.234375 0.171875q0.109375 0.09375 0.171875 0.234375q0.0625 0.140625 0.0625 0.3125q0 0.15625 -0.0625 0.296875q-0.0625 0.140625 -0.171875 0.25q-0.09375 0.09375 -0.234375 0.15625q-0.140625 0.0625 -0.3125 0.0625q-0.15625 0 -0.296875 -0.0625q-0.140625 -0.0625 -0.25 -0.15625q-0.109375 -0.109375 -0.171875 -0.25q-0.046875 -0.140625 -0.046875 -0.296875q0 -0.171875 0.046875 -0.3125q0.0625 -0.140625 0.171875 -0.234375q0.109375 -0.109375 0.25 -0.171875q0.140625 -0.0625 0.296875 -0.0625zm9.472656 -5.890625q-0.796875 -0.171875 -1.375 -0.171875q-1.375 0 -1.375 1.4375l0 1.03125l2.578125 0l0 0.859375l-2.578125 0l0 4.171875l-1.046875 0l0 -4.171875l-1.890625 0l0 -0.859375l1.890625 0l0 -0.96875q0 -2.34375 2.453125 -2.34375q0.609375 0 1.34375 0.140625l0 0.875zm-6.15625 1.4375l0 0zm9.535156 0.84375l-1.734375 0l0 -0.84375l2.765625 0l0 5.046875l1.75 0l0 0.84375l-4.703125 0l0 -0.84375l1.921875 0l0 -4.203125zm0.359375 -3.296875q0.171875 0 0.3125 0.0625q0.15625 0.046875 0.265625 0.171875q0.109375 0.109375 0.171875 0.25q0.0625 0.140625 0.0625 0.3125q0 0.15625 -0.0625 0.3125q-0.0625 0.140625 -0.171875 0.25q-0.109375 0.109375 -0.265625 0.171875q-0.140625 0.0625 -0.3125 0.0625q-0.171875 0 -0.3125 -0.0625q-0.140625 -0.0625 -0.25 -0.171875q-0.109375 -0.109375 -0.171875 -0.25q-0.0625 -0.15625 -0.0625 -0.3125q0 -0.171875 0.0625 -0.3125q0.0625 -0.140625 0.171875 -0.25q0.109375 -0.125 0.25 -0.171875q0.140625 -0.0625 0.3125 -0.0625zm4.4726562 2.453125l0.9375 0l0.03125 1.09375q0.515625 -0.625 1.015625 -0.90625q0.515625 -0.28125 1.03125 -0.28125q0.921875 0 1.390625 0.59375q0.46875 0.578125 0.4375 1.75l-1.03125 0q0.015625 -0.765625 -0.234375 -1.109375q-0.234375 -0.359375 -0.703125 -0.359375q-0.203125 0 -0.421875 0.078125q-0.203125 0.0625 -0.421875 0.234375q-0.21875 0.15625 -0.46875 0.40625q-0.25 0.25 -0.53125 0.609375l0 3.78125l-1.03125 0l0 -5.890625zm11.019531 4.28125q0 0.3125 -0.109375 0.5625q-0.09375 0.25 -0.28125 0.4375q-0.1875 0.1875 -0.421875 0.328125q-0.234375 0.125 -0.515625 0.21875q-0.265625 0.09375 -0.5625 0.125q-0.28125 0.046875 -0.5625 0.046875q-0.59375 0 -1.09375 -0.0625q-0.5 -0.046875 -0.984375 -0.171875l0 -0.9375q0.515625 0.15625 1.03125 0.234375q0.515625 0.078125 1.015625 0.078125q0.734375 0 1.078125 -0.203125q0.359375 -0.203125 0.359375 -0.578125q0 -0.15625 -0.0625 -0.28125q-0.046875 -0.125 -0.203125 -0.234375q-0.140625 -0.109375 -0.453125 -0.234375q-0.3125 -0.125 -0.84375 -0.28125q-0.390625 -0.125 -0.734375 -0.265625q-0.328125 -0.15625 -0.578125 -0.359375q-0.25 -0.203125 -0.390625 -0.46875q-0.140625 -0.28125 -0.140625 -0.65625q0 -0.25 0.109375 -0.546875q0.125 -0.296875 0.390625 -0.546875q0.28125 -0.25 0.75 -0.40625q0.46875 -0.171875 1.171875 -0.171875q0.34375 0 0.765625 0.046875q0.421875 0.03125 0.875 0.125l0 0.90625q-0.46875 -0.125 -0.90625 -0.171875q-0.421875 -0.0625 -0.75 -0.0625q-0.375 0 -0.640625 0.0625q-0.25 0.0625 -0.421875 0.171875q-0.15625 0.09375 -0.234375 0.234375q-0.0625 0.125 -0.0625 0.28125q0 0.171875 0.0625 0.296875q0.0625 0.125 0.21875 0.25q0.171875 0.109375 0.46875 0.234375q0.296875 0.125 0.78125 0.265625q0.53125 0.15625 0.875 0.328125q0.359375 0.15625 0.578125 0.359375q0.234375 0.203125 0.328125 0.46875q0.09375 0.25 0.09375 0.578125zm6.6757812 1.53125q-0.34375 0.078125 -0.71875 0.109375q-0.359375 0.046875 -0.734375 0.046875q-1.109375 0 -1.65625 -0.5q-0.546875 -0.5 -0.546875 -1.53125l0 -3.078125l-1.640625 0l0 -0.859375l1.640625 0l0 -1.609375l1.015625 -0.265625l0 1.875l2.640625 0l0 0.859375l-2.640625 0l0 2.984375q0 0.640625 0.328125 0.953125q0.34375 0.3125 1.0 0.3125q0.28125 0 0.609375 -0.046875q0.34375 -0.046875 0.703125 -0.140625l0 0.890625z" fill-rule="nonzero"></path><path fill="#000000" fill-opacity="0.0" d="m49.165367 42.42741l35.37008 0" fill-rule="nonzero"></path><path stroke="#000000" stroke-width="2.0" stroke-linejoin="round" stroke-linecap="butt" d="m49.16537 42.42741l23.370075 0" fill-rule="evenodd"></path><path fill="#000000" stroke="#000000" stroke-width="2.0" stroke-linecap="butt" d="m72.535446 45.730873l9.076195 -3.303463l-9.076195 -3.3034668z" fill-rule="evenodd"></path><path fill="#fff2cc" d="m194.04767 31.13733l0 0c0 -3.1137295 2.52417 -5.637907 5.637909 -5.637907l62.865906 0c1.4952698 0 2.9292908 0.59399223 3.9866028 1.6513042c1.057312 1.0573139 1.6513062 2.4913368 1.6513062 3.9866028l0 22.550957c0 3.1137314 -2.52417 5.637909 -5.637909 5.637909l-62.865906 0c-3.113739 0 -5.637909 -2.5241776 -5.637909 -5.637909z" fill-rule="nonzero"></path><path stroke="#000000" stroke-width="1.0" stroke-linejoin="round" stroke-linecap="butt" d="m194.04767 31.13733l0 0c0 -3.1137295 2.52417 -5.637907 5.637909 -5.637907l62.865906 0c1.4952698 0 2.9292908 0.59399223 3.9866028 1.6513042c1.057312 1.0573139 1.6513062 2.4913368 1.6513062 3.9866028l0 22.550957c0 3.1137314 -2.52417 5.637909 -5.637909 5.637909l-62.865906 0c-3.113739 0 -5.637909 -2.5241776 -5.637909 -5.637909z" fill-rule="nonzero"></path><path fill="#000000" d="m211.93298 38.651558l-0.15625 6.03125l-0.90625 0l-0.171875 -6.03125l1.234375 0zm-0.625 6.84375q0.171875 0 0.3125 0.0625q0.140625 0.0625 0.234375 0.171875q0.109375 0.09375 0.171875 0.234375q0.0625 0.140625 0.0625 0.3125q0 0.15625 -0.0625 0.296875q-0.0625 0.140625 -0.171875 0.25q-0.09375 0.09375 -0.234375 0.15625q-0.140625 0.0625 -0.3125 0.0625q-0.15625 0 -0.296875 -0.0625q-0.140625 -0.0625 -0.25 -0.15625q-0.109375 -0.109375 -0.171875 -0.25q-0.046875 -0.140625 -0.046875 -0.296875q0 -0.171875 0.046875 -0.3125q0.0625 -0.140625 0.171875 -0.234375q0.109375 -0.109375 0.25 -0.171875q0.140625 -0.0625 0.296875 -0.0625zm8.910156 -0.171875q0 0.3125 -0.109375 0.5625q-0.09375 0.25 -0.28125 0.4375q-0.1875 0.1875 -0.421875 0.328125q-0.234375 0.125 -0.515625 0.21875q-0.265625 0.09375 -0.5625 0.125q-0.28125 0.046875 -0.5625 0.046875q-0.59375 0 -1.09375 -0.0625q-0.5 -0.046875 -0.984375 -0.171875l0 -0.9375q0.515625 0.15625 1.03125 0.234375q0.515625 0.078125 1.015625 0.078125q0.734375 0 1.078125 -0.203125q0.359375 -0.203125 0.359375 -0.578125q0 -0.15625 -0.0625 -0.28125q-0.046875 -0.125 -0.203125 -0.234375q-0.140625 -0.109375 -0.453125 -0.234375q-0.3125 -0.125 -0.84375 -0.28125q-0.390625 -0.125 -0.734375 -0.265625q-0.328125 -0.15625 -0.578125 -0.359375q-0.25 -0.203125 -0.390625 -0.46875q-0.140625 -0.28125 -0.140625 -0.65625q0 -0.25 0.109375 -0.546875q0.125 -0.296875 0.390625 -0.546875q0.28125 -0.25 0.75 -0.40625q0.46875 -0.171875 1.171875 -0.171875q0.34375 0 0.765625 0.046875q0.421875 0.03125 0.875 0.125l0 0.90625q-0.46875 -0.125 -0.90625 -0.171875q-0.421875 -0.0625 -0.75 -0.0625q-0.375 0 -0.640625 0.0625q-0.25 0.0625 -0.421875 0.171875q-0.15625 0.09375 -0.234375 0.234375q-0.0625 0.125 -0.0625 0.28125q0 0.171875 0.0625 0.296875q0.0625 0.125 0.21875 0.25q0.171875 0.109375 0.46875 0.234375q0.296875 0.125 0.78125 0.265625q0.53125 0.15625 0.875 0.328125q0.359375 0.15625 0.578125 0.359375q0.234375 0.203125 0.328125 0.46875q0.09375 0.25 0.09375 0.578125zm6.9101562 -1.640625q0 0.21875 -0.015625 0.359375q0 0.140625 0 0.28125l-4.140625 0q0 0.890625 0.5 1.375q0.515625 0.484375 1.453125 0.484375q0.265625 0 0.515625 -0.015625q0.265625 -0.015625 0.5 -0.046875q0.25 -0.046875 0.46875 -0.078125q0.21875 -0.046875 0.40625 -0.109375l0 0.84375q-0.421875 0.109375 -0.953125 0.1875q-0.515625 0.078125 -1.078125 0.078125q-0.75 0 -1.296875 -0.203125q-0.546875 -0.21875 -0.90625 -0.59375q-0.34375 -0.390625 -0.515625 -0.953125q-0.15625 -0.578125 -0.15625 -1.296875q0 -0.609375 0.171875 -1.15625q0.1875 -0.5625 0.53125 -0.984375q0.34375 -0.421875 0.828125 -0.65625q0.5 -0.25 1.140625 -0.25q0.609375 0 1.078125 0.1875q0.484375 0.1875 0.8125 0.546875q0.328125 0.359375 0.484375 0.875q0.171875 0.5 0.171875 1.125zm-1.0625 -0.15625q0.015625 -0.390625 -0.078125 -0.703125q-0.09375 -0.328125 -0.296875 -0.5625q-0.1875 -0.234375 -0.484375 -0.359375q-0.28125 -0.140625 -0.671875 -0.140625q-0.328125 0 -0.609375 0.125q-0.28125 0.125 -0.484375 0.359375q-0.1875 0.234375 -0.3125 0.5625q-0.125 0.328125 -0.15625 0.71875l3.09375 0zm7.2695312 3.1875q-0.40625 0.15625 -0.828125 0.21875q-0.421875 0.078125 -0.859375 0.078125q-1.390625 0 -2.15625 -0.75q-0.75 -0.765625 -0.75 -2.21875q0 -0.6875 0.21875 -1.25q0.21875 -0.578125 0.609375 -0.984375q0.390625 -0.40625 0.9375 -0.625q0.546875 -0.21875 1.203125 -0.21875q0.453125 0 0.84375 0.0625q0.40625 0.0625 0.78125 0.21875l0 0.96875q-0.390625 -0.203125 -0.78125 -0.28125q-0.390625 -0.09375 -0.8125 -0.09375q-0.40625 0 -0.75 0.15625q-0.34375 0.140625 -0.609375 0.421875q-0.265625 0.28125 -0.421875 0.6875q-0.140625 0.40625 -0.140625 0.90625q0 1.0625 0.515625 1.59375q0.515625 0.53125 1.4375 0.53125q0.40625 0 0.796875 -0.09375q0.390625 -0.09375 0.765625 -0.28125l0 0.953125zm7.1445312 -2.765625q0 0.6875 -0.203125 1.265625q-0.1875 0.5625 -0.546875 0.96875q-0.359375 0.40625 -0.890625 0.640625q-0.515625 0.21875 -1.1875 0.21875q-0.625 0 -1.125 -0.1875q-0.5 -0.203125 -0.859375 -0.578125q-0.34375 -0.390625 -0.53125 -0.953125q-0.171875 -0.5625 -0.171875 -1.296875q0 -0.6875 0.1875 -1.25q0.1875 -0.5625 0.546875 -0.96875q0.375 -0.40625 0.890625 -0.625q0.53125 -0.234375 1.1875 -0.234375q0.625 0 1.125 0.203125q0.515625 0.1875 0.859375 0.5625q0.34375 0.375 0.53125 0.9375q0.1875 0.5625 0.1875 1.296875zm-1.046875 0.046875q0 -0.546875 -0.125 -0.953125q-0.109375 -0.40625 -0.34375 -0.671875q-0.21875 -0.28125 -0.546875 -0.421875q-0.3125 -0.140625 -0.703125 -0.140625q-0.453125 0 -0.78125 0.1875q-0.328125 0.171875 -0.53125 0.46875q-0.203125 0.296875 -0.3125 0.703125q-0.09375 0.390625 -0.09375 0.828125q0 0.546875 0.125 0.953125q0.125 0.40625 0.34375 0.6875q0.21875 0.265625 0.53125 0.40625q0.328125 0.140625 0.71875 0.140625q0.453125 0 0.78125 -0.171875q0.328125 -0.1875 0.53125 -0.484375q0.21875 -0.3125 0.3125 -0.703125q0.09375 -0.390625 0.09375 -0.828125zm2.5195312 -2.953125l0.90625 0l0.046875 0.953125q0.25 -0.296875 0.484375 -0.5q0.25 -0.203125 0.484375 -0.328125q0.234375 -0.125 0.46875 -0.171875q0.234375 -0.046875 0.5 -0.046875q0.90625 0 1.375 0.53125q0.46875 0.53125 0.46875 1.609375l0 3.84375l-1.03125 0l0 -3.75q0 -0.703125 -0.265625 -1.03125q-0.25 -0.328125 -0.75 -0.328125q-0.1875 0 -0.375 0.0625q-0.171875 0.046875 -0.375 0.1875q-0.1875 0.140625 -0.421875 0.375q-0.21875 0.234375 -0.5 0.578125l0 3.90625l-1.015625 0l0 -5.890625zm6.3007812 3.078125q0 -0.75 0.203125 -1.328125q0.203125 -0.59375 0.578125 -0.984375q0.390625 -0.40625 0.90625 -0.609375q0.53125 -0.21875 1.1875 -0.21875q0.28125 0 0.546875 0.03125q0.28125 0.03125 0.546875 0.109375l0 -2.46875l1.015625 0l0 8.28125l-0.90625 0l-0.03125 -1.109375q-0.4375 0.609375 -0.9375 0.921875q-0.484375 0.296875 -1.078125 0.296875q-0.5 0 -0.890625 -0.203125q-0.375 -0.21875 -0.640625 -0.59375q-0.25 -0.390625 -0.375 -0.921875q-0.125 -0.546875 -0.125 -1.203125zm1.046875 -0.078125q0 1.078125 0.3125 1.609375q0.3125 0.515625 0.890625 0.515625q0.375 0 0.796875 -0.34375q0.4375 -0.34375 0.921875 -1.03125l0 -2.734375q-0.25 -0.109375 -0.5625 -0.171875q-0.296875 -0.0625 -0.59375 -0.0625q-0.84375 0 -1.3125 0.546875q-0.453125 0.53125 -0.453125 1.671875z" fill-rule="nonzero"></path><path fill="#000000" fill-opacity="0.0" d="m158.67152 42.412807l35.370087 0" fill-rule="nonzero"></path><path stroke="#000000" stroke-width="2.0" stroke-linejoin="round" stroke-linecap="butt" d="m158.67152 42.412807l23.370087 0" fill-rule="evenodd"></path><path fill="#000000" stroke="#000000" stroke-width="2.0" stroke-linecap="butt" d="m182.04161 45.71627l9.076187 -3.303463l-9.076187 -3.3034668z" fill-rule="evenodd"></path><path fill="#fff2cc" d="m303.56552 31.13733l0 0c0 -3.1137295 2.5242004 -5.637907 5.637909 -5.637907l62.865936 0c1.4952698 0 2.9292908 0.59399223 3.9866028 1.6513042c1.057312 1.0573139 1.6513062 2.4913368 1.6513062 3.9866028l0 22.550957c0 3.1137314 -2.52417 5.637909 -5.637909 5.637909l-62.865936 0c-3.1137085 0 -5.637909 -2.5241776 -5.637909 -5.637909z" fill-rule="nonzero"></path><path stroke="#000000" stroke-width="1.0" stroke-linejoin="round" stroke-linecap="butt" d="m303.56552 31.13733l0 0c0 -3.1137295 2.5242004 -5.637907 5.637909 -5.637907l62.865936 0c1.4952698 0 2.9292908 0.59399223 3.9866028 1.6513042c1.057312 1.0573139 1.6513062 2.4913368 1.6513062 3.9866028l0 22.550957c0 3.1137314 -2.52417 5.637909 -5.637909 5.637909l-62.865936 0c-3.1137085 0 -5.637909 -2.5241776 -5.637909 -5.637909z" fill-rule="nonzero"></path><path fill="#000000" d="m324.7497 38.651558l-0.15625 6.03125l-0.90625 0l-0.171875 -6.03125l1.234375 0zm-0.625 6.84375q0.171875 0 0.3125 0.0625q0.140625 0.0625 0.234375 0.171875q0.109375 0.09375 0.171875 0.234375q0.0625 0.140625 0.0625 0.3125q0 0.15625 -0.0625 0.296875q-0.0625 0.140625 -0.171875 0.25q-0.09375 0.09375 -0.234375 0.15625q-0.140625 0.0625 -0.3125 0.0625q-0.15625 0 -0.296875 -0.0625q-0.140625 -0.0625 -0.25 -0.15625q-0.109375 -0.109375 -0.171875 -0.25q-0.046875 -0.140625 -0.046875 -0.296875q0 -0.171875 0.046875 -0.3125q0.0625 -0.140625 0.171875 -0.234375q0.109375 -0.109375 0.25 -0.171875q0.140625 -0.0625 0.296875 -0.0625zm8.988281 1.359375q-0.34375 0.078125 -0.71875 0.109375q-0.359375 0.046875 -0.734375 0.046875q-1.109375 0 -1.65625 -0.5q-0.546875 -0.5 -0.546875 -1.53125l0 -3.078125l-1.640625 0l0 -0.859375l1.640625 0l0 -1.609375l1.015625 -0.265625l0 1.875l2.640625 0l0 0.859375l-2.640625 0l0 2.984375q0 0.640625 0.328125 0.953125q0.34375 0.3125 1.0 0.3125q0.28125 0 0.609375 -0.046875q0.34375 -0.046875 0.703125 -0.140625l0 0.890625zm6.5976562 0.078125l-1.03125 0l0 -3.75q0 -0.6875 -0.25 -1.015625q-0.25 -0.34375 -0.734375 -0.34375q-0.203125 0 -0.390625 0.0625q-0.171875 0.046875 -0.359375 0.1875q-0.1875 0.140625 -0.421875 0.375q-0.234375 0.234375 -0.53125 0.578125l0 3.90625l-1.015625 0l0 -8.28125l1.015625 0l0 2.390625l-0.03125 0.9375q0.234375 -0.296875 0.46875 -0.484375q0.234375 -0.203125 0.46875 -0.328125q0.234375 -0.125 0.46875 -0.171875q0.234375 -0.046875 0.5 -0.046875q0.875 0 1.359375 0.53125q0.484375 0.53125 0.484375 1.609375l0 3.84375zm3.8632812 -5.046875l-1.734375 0l0 -0.84375l2.765625 0l0 5.046875l1.75 0l0 0.84375l-4.703125 0l0 -0.84375l1.921875 0l0 -4.203125zm0.359375 -3.296875q0.171875 0 0.3125 0.0625q0.15625 0.046875 0.265625 0.171875q0.109375 0.109375 0.171875 0.25q0.0625 0.140625 0.0625 0.3125q0 0.15625 -0.0625 0.3125q-0.0625 0.140625 -0.171875 0.25q-0.109375 0.109375 -0.265625 0.171875q-0.140625 0.0625 -0.3125 0.0625q-0.171875 0 -0.3125 -0.0625q-0.140625 -0.0625 -0.25 -0.171875q-0.109375 -0.109375 -0.171875 -0.25q-0.0625 -0.15625 -0.0625 -0.3125q0 -0.171875 0.0625 -0.3125q0.0625 -0.140625 0.171875 -0.25q0.109375 -0.125 0.25 -0.171875q0.140625 -0.0625 0.3125 -0.0625zm4.4726562 2.453125l0.9375 0l0.03125 1.09375q0.515625 -0.625 1.015625 -0.90625q0.515625 -0.28125 1.03125 -0.28125q0.921875 0 1.390625 0.59375q0.46875 0.578125 0.4375 1.75l-1.03125 0q0.015625 -0.765625 -0.234375 -1.109375q-0.234375 -0.359375 -0.703125 -0.359375q-0.203125 0 -0.421875 0.078125q-0.203125 0.0625 -0.421875 0.234375q-0.21875 0.15625 -0.46875 0.40625q-0.25 0.25 -0.53125 0.609375l0 3.78125l-1.03125 0l0 -5.890625zm6.0664062 3.078125q0 -0.75 0.203125 -1.328125q0.203125 -0.59375 0.578125 -0.984375q0.390625 -0.40625 0.90625 -0.609375q0.53125 -0.21875 1.1875 -0.21875q0.28125 0 0.546875 0.03125q0.28125 0.03125 0.546875 0.109375l0 -2.46875l1.015625 0l0 8.28125l-0.90625 0l-0.03125 -1.109375q-0.4375 0.609375 -0.9375 0.921875q-0.484375 0.296875 -1.078125 0.296875q-0.5 0 -0.890625 -0.203125q-0.375 -0.21875 -0.640625 -0.59375q-0.25 -0.390625 -0.375 -0.921875q-0.125 -0.546875 -0.125 -1.203125zm1.046875 -0.078125q0 1.078125 0.3125 1.609375q0.3125 0.515625 0.890625 0.515625q0.375 0 0.796875 -0.34375q0.4375 -0.34375 0.921875 -1.03125l0 -2.734375q-0.25 -0.109375 -0.5625 -0.171875q-0.296875 -0.0625 -0.59375 -0.0625q-0.84375 0 -1.3125 0.546875q-0.453125 0.53125 -0.453125 1.671875z" fill-rule="nonzero"></path><path fill="#000000" fill-opacity="0.0" d="m268.1894 42.412807l35.370087 0" fill-rule="nonzero"></path><path stroke="#000000" stroke-width="2.0" stroke-linejoin="round" stroke-linecap="butt" d="m268.1894 42.412807l23.370087 0" fill-rule="evenodd"></path><path fill="#000000" stroke="#000000" stroke-width="2.0" stroke-linecap="butt" d="m291.55948 45.71627l9.076202 -3.303463l-9.076202 -3.3034668z" fill-rule="evenodd"></path><path fill="#fff2cc" d="m413.1712 31.13733l0 0c0 -3.1137295 2.52417 -5.637907 5.637909 -5.637907l62.865936 0c1.4952393 0 2.9292908 0.59399223 3.9866028 1.6513042c1.057312 1.0573139 1.6513062 2.4913368 1.6513062 3.9866028l0 22.550957c0 3.1137314 -2.5242004 5.637909 -5.637909 5.637909l-62.865936 0c-3.113739 0 -5.637909 -2.5241776 -5.637909 -5.637909z" fill-rule="nonzero"></path><path stroke="#000000" stroke-width="1.0" stroke-linejoin="round" stroke-linecap="butt" d="m413.1712 31.13733l0 0c0 -3.1137295 2.52417 -5.637907 5.637909 -5.637907l62.865936 0c1.4952393 0 2.9292908 0.59399223 3.9866028 1.6513042c1.057312 1.0573139 1.6513062 2.4913368 1.6513062 3.9866028l0 22.550957c0 3.1137314 -2.5242004 5.637909 -5.637909 5.637909l-62.865936 0c-3.113739 0 -5.637909 -2.5241776 -5.637909 -5.637909z" fill-rule="nonzero"></path><path fill="#000000" d="m434.35535 38.651558l-0.15625 6.03125l-0.90625 0l-0.171875 -6.03125l1.234375 0zm-0.625 6.84375q0.171875 0 0.3125 0.0625q0.140625 0.0625 0.234375 0.171875q0.109375 0.09375 0.171875 0.234375q0.0625 0.140625 0.0625 0.3125q0 0.15625 -0.0625 0.296875q-0.0625 0.140625 -0.171875 0.25q-0.09375 0.09375 -0.234375 0.15625q-0.140625 0.0625 -0.3125 0.0625q-0.15625 0 -0.296875 -0.0625q-0.140625 -0.0625 -0.25 -0.15625q-0.109375 -0.109375 -0.171875 -0.25q-0.046875 -0.140625 -0.046875 -0.296875q0 -0.171875 0.046875 -0.3125q0.0625 -0.140625 0.171875 -0.234375q0.109375 -0.109375 0.25 -0.171875q0.140625 -0.0625 0.296875 -0.0625zm9.472656 -5.890625q-0.796875 -0.171875 -1.375 -0.171875q-1.375 0 -1.375 1.4375l0 1.03125l2.578125 0l0 0.859375l-2.578125 0l0 4.171875l-1.046875 0l0 -4.171875l-1.890625 0l0 -0.859375l1.890625 0l0 -0.96875q0 -2.34375 2.453125 -2.34375q0.609375 0 1.34375 0.140625l0 0.875zm-6.15625 1.4375l0 0zm9.535156 0.84375l-1.734375 0l0 -0.84375l2.765625 0l0 5.046875l1.75 0l0 0.84375l-4.703125 0l0 -0.84375l1.921875 0l0 -4.203125zm0.359375 -3.296875q0.171875 0 0.3125 0.0625q0.15625 0.046875 0.265625 0.171875q0.109375 0.109375 0.171875 0.25q0.0625 0.140625 0.0625 0.3125q0 0.15625 -0.0625 0.3125q-0.0625 0.140625 -0.171875 0.25q-0.109375 0.109375 -0.265625 0.171875q-0.140625 0.0625 -0.3125 0.0625q-0.171875 0 -0.3125 -0.0625q-0.140625 -0.0625 -0.25 -0.171875q-0.109375 -0.109375 -0.171875 -0.25q-0.0625 -0.15625 -0.0625 -0.3125q0 -0.171875 0.0625 -0.3125q0.0625 -0.140625 0.171875 -0.25q0.109375 -0.125 0.25 -0.171875q0.140625 -0.0625 0.3125 -0.0625zm4.2382812 2.453125l0.90625 0l0.046875 0.953125q0.25 -0.296875 0.484375 -0.5q0.25 -0.203125 0.484375 -0.328125q0.234375 -0.125 0.46875 -0.171875q0.234375 -0.046875 0.5 -0.046875q0.90625 0 1.375 0.53125q0.46875 0.53125 0.46875 1.609375l0 3.84375l-1.03125 0l0 -3.75q0 -0.703125 -0.265625 -1.03125q-0.25 -0.328125 -0.75 -0.328125q-0.1875 0 -0.375 0.0625q-0.171875 0.046875 -0.375 0.1875q-0.1875 0.140625 -0.421875 0.375q-0.21875 0.234375 -0.5 0.578125l0 3.90625l-1.015625 0l0 -5.890625zm10.378906 5.890625l-0.03125 -0.796875q-0.46875 0.484375 -0.96875 0.703125q-0.5 0.203125 -1.046875 0.203125q-0.5 0 -0.859375 -0.125q-0.359375 -0.140625 -0.59375 -0.359375q-0.21875 -0.234375 -0.328125 -0.53125q-0.109375 -0.3125 -0.109375 -0.671875q0 -0.875 0.65625 -1.375q0.65625 -0.5 1.953125 -0.5l1.21875 0l0 -0.515625q0 -0.53125 -0.34375 -0.84375q-0.328125 -0.3125 -1.015625 -0.3125q-0.5 0 -0.984375 0.109375q-0.484375 0.109375 -1.0 0.328125l0 -0.921875q0.203125 -0.078125 0.4375 -0.140625q0.234375 -0.0625 0.5 -0.109375q0.265625 -0.0625 0.546875 -0.09375q0.296875 -0.03125 0.578125 -0.03125q0.546875 0 0.96875 0.125q0.421875 0.109375 0.71875 0.34375q0.296875 0.234375 0.453125 0.609375q0.15625 0.359375 0.15625 0.84375l0 4.0625l-0.90625 0zm-0.109375 -2.671875l-1.296875 0q-0.375 0 -0.65625 0.078125q-0.28125 0.0625 -0.453125 0.203125q-0.171875 0.140625 -0.265625 0.34375q-0.078125 0.1875 -0.078125 0.4375q0 0.171875 0.046875 0.328125q0.0625 0.15625 0.171875 0.28125q0.125 0.109375 0.3125 0.1875q0.1875 0.0625 0.453125 0.0625q0.34375 0 0.796875 -0.203125q0.46875 -0.21875 0.96875 -0.6875l0 -1.03125zm4.9257812 -4.765625l-1.734375 0l0 -0.84375l2.765625 0l0 7.4375l1.75 0l0 0.84375l-4.703125 0l0 -0.84375l1.921875 0l0 -6.59375z" fill-rule="nonzero"></path><path fill="#000000" fill-opacity="0.0" d="m377.80115 42.412807l35.370056 0" fill-rule="nonzero"></path><path stroke="#000000" stroke-width="2.0" stroke-linejoin="round" stroke-linecap="butt" d="m377.80115 42.412807l23.370056 0" fill-rule="evenodd"></path><path fill="#000000" stroke="#000000" stroke-width="2.0" stroke-linecap="butt" d="m401.17123 45.71627l9.076172 -3.303463l-9.076172 -3.3034668z" fill-rule="evenodd"></path><path fill="#000000" fill-opacity="0.0" d="m339.99475 60.157482c-9.2283325 5.038059 -36.863953 23.843395 -55.370087 30.228344c-18.506104 6.3849487 -37.310135 8.181107 -55.666656 8.0813675c-18.356522 -0.099739075 -36.165787 -2.1950989 -54.472443 -8.679794c-18.306656 -6.484688 -46.13954 -25.190285 -55.367455 -30.228344" fill-rule="nonzero"></path><path stroke="#000000" stroke-width="2.0" stroke-linejoin="round" stroke-linecap="butt" d="m339.99475 60.157482c-9.2283325 5.038059 -36.863953 23.843395 -55.370087 30.228344c-18.506134 6.3849564 -37.310135 8.181107 -55.666656 8.0813675c-18.356522 -0.099739075 -36.165787 -2.1950989 -54.472443 -8.679794c-9.15332 -3.24234 -20.688202 -9.539909 -31.088257 -15.656654c-2.600006 -1.5291901 -5.1290894 -3.0470734 -7.532303 -4.50309c-1.2016144 -0.7280121 -2.3717346 -1.4405518 -3.5035553 -2.1313095l-2.935196 -1.7938232" fill-rule="evenodd"></path><path fill="#000000" stroke="#000000" stroke-width="2.0" stroke-linecap="butt" d="m131.11748 62.864807l-9.487785 -1.8088951l6.1053314 7.4843254z" fill-rule="evenodd"></path></g></svg>

