<?xml version="1.0" standalone="yes"?>

<svg version="1.1" viewBox="0.0 0.0 777.2834645669292 187.6535433070866" fill="none" stroke="none" stroke-linecap="square" stroke-miterlimit="10" xmlns="http://www.w3.org/2000/svg" xmlns:xlink="http://www.w3.org/1999/xlink"><clipPath id="p.0"><path d="m0 0l777.28345 0l0 187.65355l-777.28345 0l0 -187.65355z" clip-rule="nonzero"></path></clipPath><g clip-path="url(#p.0)"><path fill="#000000" fill-opacity="0.0" d="m0 0l777.28345 0l0 187.65355l-777.28345 0z" fill-rule="nonzero"></path><path fill="#d9ead3" d="m34.299255 59.324146l0 0c0 -15.646618 12.684093 -28.330708 28.330711 -28.330708l0 0c7.513771 0 14.719795 2.9848328 20.032837 8.297871c5.313034 5.3130417 8.297867 12.519066 8.297867 20.032837l0 0c0 15.646618 -12.68409 28.330708 -28.330704 28.330708l0 0c-15.646618 0 -28.330711 -12.68409 -28.330711 -28.330708z" fill-rule="nonzero"></path><path stroke="#000000" stroke-width="1.0" stroke-linejoin="round" stroke-linecap="butt" d="m34.299255 59.324146l0 0c0 -15.646618 12.684093 -28.330708 28.330711 -28.330708l0 0c7.513771 0 14.719795 2.9848328 20.032837 8.297871c5.313034 5.3130417 8.297867 12.519066 8.297867 20.032837l0 0c0 15.646618 -12.68409 28.330708 -28.330704 28.330708l0 0c-15.646618 0 -28.330711 -12.68409 -28.330711 -28.330708z" fill-rule="nonzero"></path><path fill="#000000" d="m53.51696 57.284145l0 -6.4375l4.34375 0l0 0.75l-3.484375 0l0 2.0l3.015625 0l0 0.765625l-3.015625 0l0 2.921875l-0.859375 0zm5.541748 0l0 -6.4375l0.78125 0l0 6.4375l-0.78125 0zm1.7911682 -2.328125q0 -1.296875 0.71875 -1.921875q0.609375 -0.515625 1.46875 -0.515625q0.96875 0 1.578125 0.625q0.609375 0.625 0.609375 1.734375q0 0.90625 -0.28125 1.421875q-0.265625 0.515625 -0.78125 0.8125q-0.515625 0.28125 -1.125 0.28125q-0.984375 0 -1.59375 -0.625q-0.59375 -0.640625 -0.59375 -1.8125zm0.8125 0q0 0.890625 0.390625 1.34375q0.390625 0.4375 0.984375 0.4375q0.59375 0 0.984375 -0.4375q0.390625 -0.453125 0.390625 -1.375q0 -0.859375 -0.390625 -1.3125q-0.390625 -0.453125 -0.984375 -0.453125q-0.59375 0 -0.984375 0.453125q-0.390625 0.4375 -0.390625 1.34375zm5.531616 2.328125l-1.421875 -4.671875l0.8125 0l0.75 2.703125l0.265625 1.0q0.015625 -0.078125 0.25 -0.96875l0.734375 -2.734375l0.8125 0l0.703125 2.71875l0.234375 0.890625l0.265625 -0.90625l0.796875 -2.703125l0.765625 0l-1.453125 4.671875l-0.8125 0l-0.75 -2.796875l-0.1875 -0.796875l-0.9375 3.59375l-0.828125 0z" fill-rule="nonzero"></path><path fill="#000000" d="m53.481155 68.28415l0 -6.437504l2.859375 0q0.859375 0 1.3125 0.171875q0.453125 0.171875 0.71875 0.609375q0.265625 0.4375 0.265625 0.96875q0 0.6875038 -0.453125 1.1562538q-0.4375 0.46875 -1.359375 0.59375q0.328125 0.171875 0.515625 0.328125q0.375 0.34375 0.703125 0.859375l1.125 1.75l-1.078125 0l-0.859375 -1.34375q-0.359375 -0.578125 -0.609375 -0.875q-0.234375 -0.3125 -0.4375 -0.4375q-0.1875 -0.125 -0.375 -0.171875q-0.15625 -0.03125 -0.484375 -0.03125l-0.984375 0l0 2.859375l-0.859375 0zm0.859375 -3.59375l1.828125 0q0.59375 0 0.921875 -0.125q0.328125 -0.125 0.5 -0.390625q0.171875 -0.2656288 0.171875 -0.5781288q0 -0.453125 -0.34375 -0.75q-0.328125 -0.296875 -1.046875 -0.296875l-2.03125 0l0 2.1406288zm5.4708557 1.265625q0 -1.296875 0.71875 -1.921875q0.609375 -0.5156288 1.46875 -0.5156288q0.96875 0 1.578125 0.6250038q0.609375 0.625 0.609375 1.734375q0 0.90625 -0.28125 1.421875q-0.265625 0.515625 -0.78125 0.8125q-0.515625 0.28125 -1.125 0.28125q-0.984375 0 -1.59375 -0.625q-0.59375 -0.640625 -0.59375 -1.8125zm0.8125 0q0 0.890625 0.390625 1.34375q0.390625 0.4375 0.984375 0.4375q0.59375 0 0.984375 -0.4375q0.390625 -0.453125 0.390625 -1.375q0 -0.859375 -0.390625 -1.3125q-0.390625 -0.453125 -0.984375 -0.453125q-0.59375 0 -0.984375 0.453125q-0.390625 0.4375 -0.390625 1.34375zm4.375366 0q0 -1.296875 0.71875 -1.921875q0.609375 -0.5156288 1.46875 -0.5156288q0.96875 0 1.578125 0.6250038q0.609375 0.625 0.609375 1.734375q0 0.90625 -0.28125 1.421875q-0.265625 0.515625 -0.78125 0.8125q-0.515625 0.28125 -1.125 0.28125q-0.984375 0 -1.59375 -0.625q-0.59375 -0.640625 -0.59375 -1.8125zm0.8125 0q0 0.890625 0.390625 1.34375q0.390625 0.4375 0.984375 0.4375q0.59375 0 0.984375 -0.4375q0.390625 -0.453125 0.390625 -1.375q0 -0.859375 -0.390625 -1.3125q-0.390625 -0.453125 -0.984375 -0.453125q-0.59375 0 -0.984375 0.453125q-0.390625 0.4375 -0.390625 1.34375zm6.406616 1.625l0.109375 0.6875q-0.34375 0.078125 -0.59375 0.078125q-0.4375 0 -0.671875 -0.140625q-0.234375 -0.140625 -0.34375 -0.359375q-0.09375 -0.21875 -0.09375 -0.921875l0 -2.6875l-0.578125 0l0 -0.6250038l0.578125 0l0 -1.15625l0.796875 -0.46875l0 1.625l0.796875 0l0 0.6250038l-0.796875 0l0 2.71875q0 0.34375 0.03125 0.4375q0.046875 0.09375 0.140625 0.15625q0.09375 0.0625 0.265625 0.0625q0.140625 0 0.359375 -0.03125z" fill-rule="nonzero"></path><path fill="#fff2cc" d="m142.56041 42.872868l0 0c0 -4.54303 3.682846 -8.225887 8.225876 -8.225887l91.674225 0c2.1816406 0 4.273926 0.86665344 5.816574 2.4093094c1.5426483 1.5426521 2.4093018 3.6349373 2.4093018 5.816578l0 32.90256c0 4.54303 -3.682846 8.2258835 -8.225876 8.2258835l-91.674225 0c-4.54303 0 -8.225876 -3.6828537 -8.225876 -8.2258835z" fill-rule="nonzero"></path><path stroke="#000000" stroke-width="1.0" stroke-linejoin="round" stroke-linecap="butt" d="m142.56041 42.872868l0 0c0 -4.54303 3.682846 -8.225887 8.225876 -8.225887l91.674225 0c2.1816406 0 4.273926 0.86665344 5.816574 2.4093094c1.5426483 1.5426521 2.4093018 3.6349373 2.4093018 5.816578l0 32.90256c0 4.54303 -3.682846 8.2258835 -8.225876 8.2258835l-91.674225 0c-4.54303 0 -8.225876 -3.6828537 -8.225876 -8.2258835z" fill-rule="nonzero"></path><path fill="#000000" d="m167.68457 56.124146l0 -9.3125l6.28125 0l0 1.109375l-5.046875 0l0 2.875l4.375 0l0 1.09375l-4.375 0l0 4.234375l-1.234375 0zm7.9069824 0l0 -9.3125l1.140625 0l0 9.3125l-1.140625 0zm2.570465 -3.375q0 -1.875 1.03125 -2.765625q0.875 -0.75 2.125 -0.75q1.390625 0 2.265625 0.90625q0.890625 0.90625 0.890625 2.515625q0 1.296875 -0.390625 2.046875q-0.390625 0.75 -1.140625 1.171875q-0.75 0.40625 -1.625 0.40625q-1.421875 0 -2.296875 -0.90625q-0.859375 -0.90625 -0.859375 -2.625zm1.171875 0q0 1.296875 0.5625 1.953125q0.5625 0.640625 1.421875 0.640625q0.84375 0 1.40625 -0.640625q0.578125 -0.65625 0.578125 -1.984375q0 -1.25 -0.578125 -1.890625q-0.5625 -0.65625 -1.40625 -0.65625q-0.859375 0 -1.421875 0.640625q-0.5625 0.640625 -0.5625 1.9375zm7.8968506 3.375l-2.0625 -6.734375l1.1875 0l1.078125 3.890625l0.390625 1.4375q0.03125 -0.109375 0.359375 -1.390625l1.0625 -3.9375l1.171875 0l1.015625 3.90625l0.34375 1.28125l0.375 -1.296875l1.15625 -3.890625l1.109375 0l-2.109375 6.734375l-1.171875 0l-1.078125 -4.03125l-0.265625 -1.15625l-1.359375 5.1875l-1.203125 0zm8.515778 0l0 -9.3125l1.265625 0l4.890625 7.3125l0 -7.3125l1.1875 0l0 9.3125l-1.265625 0l-4.890625 -7.3125l0 7.3125l-1.1875 0zm9.078278 -3.375q0 -1.875 1.03125 -2.765625q0.875 -0.75 2.125 -0.75q1.390625 0 2.265625 0.90625q0.890625 0.90625 0.890625 2.515625q0 1.296875 -0.390625 2.046875q-0.390625 0.75 -1.140625 1.171875q-0.75 0.40625 -1.625 0.40625q-1.421875 0 -2.296875 -0.90625q-0.859375 -0.90625 -0.859375 -2.625zm1.171875 0q0 1.296875 0.5625 1.953125q0.5625 0.640625 1.421875 0.640625q0.84375 0 1.40625 -0.640625q0.578125 -0.65625 0.578125 -1.984375q0 -1.25 -0.578125 -1.890625q-0.5625 -0.65625 -1.40625 -0.65625q-0.859375 0 -1.421875 0.640625q-0.5625 0.640625 -0.5625 1.9375zm11.037476 3.375l0 -0.84375q-0.640625 1.0 -1.890625 1.0q-0.796875 0 -1.484375 -0.4375q-0.671875 -0.453125 -1.046875 -1.25q-0.375 -0.796875 -0.375 -1.828125q0 -1.015625 0.34375 -1.828125q0.34375 -0.828125 1.015625 -1.265625q0.671875 -0.4375 1.5 -0.4375q0.609375 0 1.078125 0.265625q0.484375 0.25 0.78125 0.65625l0 -3.34375l1.140625 0l0 9.3125l-1.0625 0zm-3.609375 -3.359375q0 1.296875 0.53125 1.9375q0.546875 0.640625 1.296875 0.640625q0.75 0 1.265625 -0.609375q0.53125 -0.625 0.53125 -1.875q0 -1.390625 -0.53125 -2.03125q-0.53125 -0.65625 -1.3125 -0.65625q-0.765625 0 -1.28125 0.625q-0.5 0.625 -0.5 1.96875zm11.256226 1.1875l1.1875 0.140625q-0.28125 1.046875 -1.046875 1.625q-0.75 0.5625 -1.921875 0.5625q-1.484375 0 -2.359375 -0.90625q-0.859375 -0.921875 -0.859375 -2.5625q0 -1.703125 0.875 -2.640625q0.890625 -0.9375 2.28125 -0.9375q1.359375 0 2.203125 0.921875q0.859375 0.921875 0.859375 2.578125q0 0.109375 0 0.3125l-5.03125 0q0.0625 1.109375 0.625 1.703125q0.5625 0.59375 1.40625 0.59375q0.640625 0 1.078125 -0.328125q0.453125 -0.34375 0.703125 -1.0625zm-3.75 -1.84375l3.765625 0q-0.078125 -0.859375 -0.4375 -1.28125q-0.546875 -0.65625 -1.40625 -0.65625q-0.796875 0 -1.328125 0.53125q-0.53125 0.515625 -0.59375 1.40625z" fill-rule="nonzero"></path><path fill="#000000" d="m176.91225 74.85852q-0.953125 -1.1875 -1.609375 -2.78125q-0.65625 -1.609375 -0.65625 -3.328125q0 -1.5 0.5 -2.890625q0.5625 -1.609375 1.765625 -3.2031212l0.8125 0q-0.765625 1.328125 -1.015625 1.8906212q-0.390625 0.875 -0.609375 1.828125q-0.265625 1.1875 -0.265625 2.390625q0 3.046875 1.890625 6.09375l-0.8125 0z" fill-rule="nonzero"></path><path fill="#000000" d="m182.53812 63.1554l-0.171875 6.531246l-0.984375 0l-0.1875 -6.531246l1.34375 0zm-0.671875 7.406246q0.171875 0 0.3125 0.078125q0.15625 0.0625 0.265625 0.171875q0.125 0.109375 0.1875 0.265625q0.0625 0.15625 0.0625 0.328125q0 0.171875 -0.0625 0.328125q-0.0625 0.15625 -0.1875 0.265625q-0.109375 0.109375 -0.265625 0.171875q-0.140625 0.0625 -0.3125 0.0625q-0.171875 0 -0.328125 -0.0625q-0.15625 -0.0625 -0.28125 -0.171875q-0.109375 -0.109375 -0.171875 -0.265625q-0.0625 -0.15625 -0.0625 -0.328125q0 -0.171875 0.0625 -0.328125q0.0625 -0.15625 0.171875 -0.265625q0.125 -0.109375 0.28125 -0.171875q0.15625 -0.078125 0.328125 -0.078125zm9.734116 1.328125q-0.4375 0.171875 -0.890625 0.25q-0.453125 0.078125 -0.9375 0.078125q-1.5 0 -2.328125 -0.8125q-0.8125 -0.828125 -0.8125 -2.40625q0 -0.75 0.234375 -1.359375q0.234375 -0.625 0.65625 -1.0625q0.4375 -0.4375 1.015625 -0.671875q0.59375 -0.25 1.3125 -0.25q0.484375 0 0.921875 0.078125q0.4375 0.0625 0.828125 0.234375l0 1.046875q-0.421875 -0.21875 -0.84375 -0.3125q-0.421875 -0.09375 -0.890625 -0.09375q-0.421875 0 -0.796875 0.15625q-0.375 0.15625 -0.671875 0.46875q-0.28125 0.296875 -0.453125 0.734375q-0.15625 0.4375 -0.15625 1.0q0 1.15625 0.5625 1.734375q0.5625 0.5625 1.5625 0.5625q0.453125 0 0.875 -0.09375q0.421875 -0.109375 0.8125 -0.3125l0 1.03125zm6.9216156 0.234375l0 -4.578125q0 -0.296875 -0.03125 -0.484375q-0.015625 -0.1875 -0.0625 -0.296875q-0.046875 -0.125 -0.125 -0.15625q-0.0625 -0.046875 -0.171875 -0.046875q-0.125 0 -0.234375 0.078125q-0.109375 0.0625 -0.234375 0.234375q-0.125 0.171875 -0.28125 0.46875q-0.140625 0.28125 -0.34375 0.6875l0 4.09375l-1.015625 0l0 -4.453125q0 -0.359375 -0.03125 -0.5625q-0.015625 -0.21875 -0.0625 -0.34375q-0.046875 -0.125 -0.125 -0.15625q-0.0625 -0.046875 -0.171875 -0.046875q-0.125 0 -0.234375 0.0625q-0.09375 0.0625 -0.21875 0.234375q-0.125 0.15625 -0.28125 0.453125q-0.140625 0.28125 -0.34375 0.71875l0 4.09375l-1.015625 0l0 -6.375l0.84375 0l0.046875 1.21875q0.15625 -0.359375 0.3125 -0.609375q0.15625 -0.265625 0.3125 -0.421875q0.171875 -0.15625 0.359375 -0.21875q0.1875 -0.078125 0.421875 -0.078125q0.515625 0 0.78125 0.34375q0.265625 0.328125 0.265625 1.03125q0.15625 -0.328125 0.296875 -0.578125q0.15625 -0.265625 0.3125 -0.4375q0.171875 -0.171875 0.375 -0.265625q0.203125 -0.09375 0.46875 -0.09375q1.203125 0 1.203125 1.84375l0 4.640625l-1.015625 0zm2.4528656 -3.046875q0 -0.8125 0.21875 -1.4375q0.234375 -0.640625 0.640625 -1.078125q0.40625 -0.4375 0.984375 -0.65625q0.578125 -0.234375 1.28125 -0.234375q0.296875 0 0.59375 0.046875q0.296875 0.03125 0.578125 0.109375l0 -2.6718712l1.109375 0l0 8.968746l-0.984375 0l-0.03125 -1.203125q-0.46875 0.671875 -1.015625 1.0q-0.53125 0.3125 -1.15625 0.3125q-0.546875 0 -0.96875 -0.21875q-0.40625 -0.234375 -0.6875 -0.640625q-0.28125 -0.421875 -0.421875 -1.0q-0.140625 -0.59375 -0.140625 -1.296875zm1.140625 -0.078125q0 1.15625 0.328125 1.734375q0.34375 0.5625 0.96875 0.5625q0.421875 0 0.875 -0.375q0.46875 -0.375 0.984375 -1.109375l0 -2.96875q-0.265625 -0.125 -0.59375 -0.1875q-0.328125 -0.0625 -0.65625 -0.0625q-0.90625 0 -1.40625 0.578125q-0.5 0.578125 -0.5 1.828125zm11.82785 3.125l-5.2031097 0l0 -1.03125l2.1249847 0l0 -6.046875l-1.9843597 1.078125l-0.40625 -0.9375l2.6406097 -1.3906212l0.96875 0l0 7.296871l1.859375 0l0 1.03125z" fill-rule="nonzero"></path><path fill="#000000" d="m216.55243 74.85852l-0.828125 0q1.90625 -3.046875 1.90625 -6.09375q0 -1.203125 -0.28125 -2.375q-0.203125 -0.953125 -0.59375 -1.828125q-0.25 -0.5624962 -1.03125 -1.9062462l0.828125 0q1.1875 1.5937462 1.765625 3.2031212q0.484375 1.390625 0.484375 2.890625q0 1.71875 -0.65625 3.328125q-0.65625 1.59375 -1.59375 2.78125z" fill-rule="nonzero"></path><path fill="#000000" fill-opacity="0.0" d="m90.96067 59.324146l51.590553 0" fill-rule="nonzero"></path><path stroke="#000000" stroke-width="2.0" stroke-linejoin="round" stroke-linecap="butt" d="m90.96067 59.324146l39.590553 0" fill-rule="evenodd"></path><path fill="#000000" stroke="#000000" stroke-width="2.0" stroke-linecap="butt" d="m130.55122 62.627613l9.076187 -3.3034668l-9.076187 -3.303463z" fill-rule="evenodd"></path><path fill="#fff2cc" d="m302.28613 42.872868l0 0c0 -4.54303 3.6828308 -8.225887 8.225861 -8.225887l91.674225 0c2.1816406 0 4.273926 0.86665344 5.8165894 2.4093094c1.542633 1.5426521 2.4093018 3.6349373 2.4093018 5.816578l0 32.90256c0 4.54303 -3.6828613 8.2258835 -8.225891 8.2258835l-91.674225 0c-4.54303 0 -8.225861 -3.6828537 -8.225861 -8.2258835z" fill-rule="nonzero"></path><path stroke="#000000" stroke-width="1.0" stroke-linejoin="round" stroke-linecap="butt" d="m302.28613 42.872868l0 0c0 -4.54303 3.6828308 -8.225887 8.225861 -8.225887l91.674225 0c2.1816406 0 4.273926 0.86665344 5.8165894 2.4093094c1.542633 1.5426521 2.4093018 3.6349373 2.4093018 5.816578l0 32.90256c0 4.54303 -3.6828613 8.2258835 -8.225891 8.2258835l-91.674225 0c-4.54303 0 -8.225861 -3.6828537 -8.225861 -8.2258835z" fill-rule="nonzero"></path><path fill="#000000" d="m327.41028 56.124146l0 -9.3125l6.28125 0l0 1.109375l-5.046875 0l0 2.875l4.375 0l0 1.09375l-4.375 0l0 4.234375l-1.234375 0zm7.9069824 0l0 -9.3125l1.140625 0l0 9.3125l-1.140625 0zm2.570465 -3.375q0 -1.875 1.03125 -2.765625q0.875 -0.75 2.125 -0.75q1.390625 0 2.265625 0.90625q0.890625 0.90625 0.890625 2.515625q0 1.296875 -0.390625 2.046875q-0.390625 0.75 -1.140625 1.171875q-0.75 0.40625 -1.625 0.40625q-1.421875 0 -2.296875 -0.90625q-0.859375 -0.90625 -0.859375 -2.625zm1.171875 0q0 1.296875 0.5625 1.953125q0.5625 0.640625 1.421875 0.640625q0.84375 0 1.40625 -0.640625q0.578125 -0.65625 0.578125 -1.984375q0 -1.25 -0.578125 -1.890625q-0.5625 -0.65625 -1.40625 -0.65625q-0.859375 0 -1.421875 0.640625q-0.5625 0.640625 -0.5625 1.9375zm7.8968506 3.375l-2.0625 -6.734375l1.1875 0l1.078125 3.890625l0.390625 1.4375q0.03125 -0.109375 0.359375 -1.390625l1.0625 -3.9375l1.171875 0l1.015625 3.90625l0.34375 1.28125l0.375 -1.296875l1.15625 -3.890625l1.109375 0l-2.109375 6.734375l-1.171875 0l-1.078125 -4.03125l-0.265625 -1.15625l-1.359375 5.1875l-1.203125 0zm8.515778 0l0 -9.3125l1.265625 0l4.890625 7.3125l0 -7.3125l1.1875 0l0 9.3125l-1.265625 0l-4.890625 -7.3125l0 7.3125l-1.1875 0zm9.078278 -3.375q0 -1.875 1.03125 -2.765625q0.875 -0.75 2.125 -0.75q1.390625 0 2.265625 0.90625q0.890625 0.90625 0.890625 2.515625q0 1.296875 -0.390625 2.046875q-0.390625 0.75 -1.140625 1.171875q-0.75 0.40625 -1.625 0.40625q-1.421875 0 -2.296875 -0.90625q-0.859375 -0.90625 -0.859375 -2.625zm1.171875 0q0 1.296875 0.5625 1.953125q0.5625 0.640625 1.421875 0.640625q0.84375 0 1.40625 -0.640625q0.578125 -0.65625 0.578125 -1.984375q0 -1.25 -0.578125 -1.890625q-0.5625 -0.65625 -1.40625 -0.65625q-0.859375 0 -1.421875 0.640625q-0.5625 0.640625 -0.5625 1.9375zm11.037476 3.375l0 -0.84375q-0.640625 1.0 -1.890625 1.0q-0.796875 0 -1.484375 -0.4375q-0.671875 -0.453125 -1.046875 -1.25q-0.375 -0.796875 -0.375 -1.828125q0 -1.015625 0.34375 -1.828125q0.34375 -0.828125 1.015625 -1.265625q0.671875 -0.4375 1.5 -0.4375q0.609375 0 1.078125 0.265625q0.484375 0.25 0.78125 0.65625l0 -3.34375l1.140625 0l0 9.3125l-1.0625 0zm-3.609375 -3.359375q0 1.296875 0.53125 1.9375q0.546875 0.640625 1.296875 0.640625q0.75 0 1.265625 -0.609375q0.53125 -0.625 0.53125 -1.875q0 -1.390625 -0.53125 -2.03125q-0.53125 -0.65625 -1.3125 -0.65625q-0.765625 0 -1.28125 0.625q-0.5 0.625 -0.5 1.96875zm11.256226 1.1875l1.1875 0.140625q-0.28125 1.046875 -1.046875 1.625q-0.75 0.5625 -1.921875 0.5625q-1.484375 0 -2.359375 -0.90625q-0.859375 -0.921875 -0.859375 -2.5625q0 -1.703125 0.875 -2.640625q0.890625 -0.9375 2.28125 -0.9375q1.359375 0 2.203125 0.921875q0.859375 0.921875 0.859375 2.578125q0 0.109375 0 0.3125l-5.03125 0q0.0625 1.109375 0.625 1.703125q0.5625 0.59375 1.40625 0.59375q0.640625 0 1.078125 -0.328125q0.453125 -0.34375 0.703125 -1.0625zm-3.75 -1.84375l3.765625 0q-0.078125 -0.859375 -0.4375 -1.28125q-0.546875 -0.65625 -1.40625 -0.65625q-0.796875 0 -1.328125 0.53125q-0.53125 0.515625 -0.59375 1.40625z" fill-rule="nonzero"></path><path fill="#000000" d="m336.97446 74.79602q-2.921875 -2.71875 -2.921875 -6.0q0 -0.765625 0.15625 -1.53125q0.15625 -0.765625 0.5 -1.53125q0.34375 -0.765625 0.90625 -1.53125q0.578125 -0.7812462 1.390625 -1.5312462l0.640625 0.65625q-2.46875 2.4374962 -2.46875 5.390621q0 1.46875 0.625 2.828125q0.625 1.359375 1.84375 2.5625l-0.671875 0.6875zm6.734131 -11.640621l-0.171875 6.531246l-0.984375 0l-0.1875 -6.531246l1.34375 0zm-0.671875 7.406246q0.171875 0 0.3125 0.078125q0.15625 0.0625 0.265625 0.171875q0.125 0.109375 0.1875 0.265625q0.0625 0.15625 0.0625 0.328125q0 0.171875 -0.0625 0.328125q-0.0625 0.15625 -0.1875 0.265625q-0.109375 0.109375 -0.265625 0.171875q-0.140625 0.0625 -0.3125 0.0625q-0.171875 0 -0.328125 -0.0625q-0.15625 -0.0625 -0.28125 -0.171875q-0.109375 -0.109375 -0.171875 -0.265625q-0.0625 -0.15625 -0.0625 -0.328125q0 -0.171875 0.0625 -0.328125q0.0625 -0.15625 0.171875 -0.265625q0.125 -0.109375 0.28125 -0.171875q0.15625 -0.078125 0.328125 -0.078125zm9.7341 1.328125q-0.4375 0.171875 -0.890625 0.25q-0.453125 0.078125 -0.9375 0.078125q-1.5 0 -2.328125 -0.8125q-0.8125 -0.828125 -0.8125 -2.40625q0 -0.75 0.234375 -1.359375q0.234375 -0.625 0.65625 -1.0625q0.4375 -0.4375 1.015625 -0.671875q0.59375 -0.25 1.3125 -0.25q0.484375 0 0.921875 0.078125q0.4375 0.0625 0.828125 0.234375l0 1.046875q-0.421875 -0.21875 -0.84375 -0.3125q-0.421875 -0.09375 -0.890625 -0.09375q-0.421875 0 -0.796875 0.15625q-0.375 0.15625 -0.671875 0.46875q-0.28125 0.296875 -0.453125 0.734375q-0.15625 0.4375 -0.15625 1.0q0 1.15625 0.5625 1.734375q0.5625 0.5625 1.5625 0.5625q0.453125 0 0.875 -0.09375q0.421875 -0.109375 0.8125 -0.3125l0 1.03125zm6.921631 0.234375l0 -4.578125q0 -0.296875 -0.03125 -0.484375q-0.015625 -0.1875 -0.0625 -0.296875q-0.046875 -0.125 -0.125 -0.15625q-0.0625 -0.046875 -0.171875 -0.046875q-0.125 0 -0.234375 0.078125q-0.109375 0.0625 -0.234375 0.234375q-0.125 0.171875 -0.28125 0.46875q-0.140625 0.28125 -0.34375 0.6875l0 4.09375l-1.015625 0l0 -4.453125q0 -0.359375 -0.03125 -0.5625q-0.015625 -0.21875 -0.0625 -0.34375q-0.046875 -0.125 -0.125 -0.15625q-0.0625 -0.046875 -0.171875 -0.046875q-0.125 0 -0.234375 0.0625q-0.09375 0.0625 -0.21875 0.234375q-0.125 0.15625 -0.28125 0.453125q-0.140625 0.28125 -0.34375 0.71875l0 4.09375l-1.015625 0l0 -6.375l0.84375 0l0.046875 1.21875q0.15625 -0.359375 0.3125 -0.609375q0.15625 -0.265625 0.3125 -0.421875q0.171875 -0.15625 0.359375 -0.21875q0.1875 -0.078125 0.421875 -0.078125q0.515625 0 0.78125 0.34375q0.265625 0.328125 0.265625 1.03125q0.15625 -0.328125 0.296875 -0.578125q0.15625 -0.265625 0.3125 -0.4375q0.171875 -0.171875 0.375 -0.265625q0.203125 -0.09375 0.46875 -0.09375q1.203125 0 1.203125 1.84375l0 4.640625l-1.015625 0zm2.4528503 -3.046875q0 -0.8125 0.21875 -1.4375q0.234375 -0.640625 0.640625 -1.078125q0.40625 -0.4375 0.984375 -0.65625q0.578125 -0.234375 1.28125 -0.234375q0.296875 0 0.59375 0.046875q0.296875 0.03125 0.578125 0.109375l0 -2.6718712l1.109375 0l0 8.968746l-0.984375 0l-0.03125 -1.203125q-0.46875 0.671875 -1.015625 1.0q-0.53125 0.3125 -1.15625 0.3125q-0.546875 0 -0.96875 -0.21875q-0.40625 -0.234375 -0.6875 -0.640625q-0.28125 -0.421875 -0.421875 -1.0q-0.140625 -0.59375 -0.140625 -1.296875zm1.140625 -0.078125q0 1.15625 0.328125 1.734375q0.34375 0.5625 0.96875 0.5625q0.421875 0 0.875 -0.375q0.46875 -0.375 0.984375 -1.109375l0 -2.96875q-0.265625 -0.125 -0.59375 -0.1875q-0.328125 -0.0625 -0.65625 -0.0625q-0.90625 0 -1.40625 0.578125q-0.5 0.578125 -0.5 1.828125zm11.905975 3.125l-5.46875 0l0 -0.984375l2.140625 -2.140625q0.53125 -0.515625 0.859375 -0.890625q0.328125 -0.390625 0.515625 -0.703125q0.1875 -0.3125 0.25 -0.59375q0.0625 -0.28125 0.0625 -0.609375q0 -0.296875 -0.09375 -0.5625q-0.078125 -0.28125 -0.25 -0.484375q-0.171875 -0.21875 -0.453125 -0.34375q-0.265625 -0.125 -0.640625 -0.125q-0.53125 0 -0.96875 0.234375q-0.421875 0.234375 -0.78125 0.609375l-0.609375 -0.71875q0.46875 -0.5 1.078125 -0.796875q0.609375 -0.2968712 1.421875 -0.2968712q0.5625 0 1.015625 0.171875q0.453125 0.15624619 0.78125 0.4687462q0.328125 0.3125 0.5 0.765625q0.1875 0.4375 0.1875 1.0q0 0.484375 -0.125 0.890625q-0.125 0.40625 -0.390625 0.8125q-0.25 0.40625 -0.640625 0.84375q-0.390625 0.421875 -0.921875 0.9375l-1.5 1.46875l4.03125 0l0 1.046875z" fill-rule="nonzero"></path><path fill="#000000" d="m377.7229 74.85852l-0.828125 0q1.90625 -3.046875 1.90625 -6.09375q0 -1.203125 -0.28125 -2.375q-0.203125 -0.953125 -0.59375 -1.828125q-0.25 -0.5624962 -1.03125 -1.9062462l0.828125 0q1.1875 1.5937462 1.765625 3.2031212q0.484375 1.390625 0.484375 2.890625q0 1.71875 -0.65625 3.328125q-0.65625 1.59375 -1.59375 2.78125z" fill-rule="nonzero"></path><path fill="#000000" fill-opacity="0.0" d="m250.68639 59.324146l51.59056 0" fill-rule="nonzero"></path><path stroke="#000000" stroke-width="2.0" stroke-linejoin="round" stroke-linecap="butt" d="m250.68639 59.324146l39.59056 0" fill-rule="evenodd"></path><path fill="#000000" stroke="#000000" stroke-width="2.0" stroke-linecap="butt" d="m290.27695 62.627613l9.076202 -3.3034668l-9.076202 -3.303463z" fill-rule="evenodd"></path><path fill="#fff2cc" d="m462.01184 42.872868l0 0c0 -4.54303 3.6828613 -8.225887 8.225891 -8.225887l91.674194 0c2.1816406 0 4.273926 0.86665344 5.8165894 2.4093094c1.5426636 1.5426521 2.4093018 3.6349373 2.4093018 5.816578l0 32.90256c0 4.54303 -3.6828613 8.2258835 -8.225891 8.2258835l-91.674194 0c-4.54303 0 -8.225891 -3.6828537 -8.225891 -8.2258835z" fill-rule="nonzero"></path><path stroke="#000000" stroke-width="1.0" stroke-linejoin="round" stroke-linecap="butt" d="m462.01184 42.872868l0 0c0 -4.54303 3.6828613 -8.225887 8.225891 -8.225887l91.674194 0c2.1816406 0 4.273926 0.86665344 5.8165894 2.4093094c1.5426636 1.5426521 2.4093018 3.6349373 2.4093018 5.816578l0 32.90256c0 4.54303 -3.6828613 8.2258835 -8.225891 8.2258835l-91.674194 0c-4.54303 0 -8.225891 -3.6828537 -8.225891 -8.2258835z" fill-rule="nonzero"></path><path fill="#000000" d="m487.136 56.124146l0 -9.3125l6.28125 0l0 1.109375l-5.046875 0l0 2.875l4.375 0l0 1.09375l-4.375 0l0 4.234375l-1.234375 0zm7.9069824 0l0 -9.3125l1.140625 0l0 9.3125l-1.140625 0zm2.570465 -3.375q0 -1.875 1.03125 -2.765625q0.875 -0.75 2.125 -0.75q1.390625 0 2.265625 0.90625q0.890625 0.90625 0.890625 2.515625q0 1.296875 -0.390625 2.046875q-0.390625 0.75 -1.140625 1.171875q-0.75 0.40625 -1.625 0.40625q-1.421875 0 -2.296875 -0.90625q-0.859375 -0.90625 -0.859375 -2.625zm1.171875 0q0 1.296875 0.5625 1.953125q0.5625 0.640625 1.421875 0.640625q0.84375 0 1.40625 -0.640625q0.578125 -0.65625 0.578125 -1.984375q0 -1.25 -0.578125 -1.890625q-0.5625 -0.65625 -1.40625 -0.65625q-0.859375 0 -1.421875 0.640625q-0.5625 0.640625 -0.5625 1.9375zm7.8968506 3.375l-2.0625 -6.734375l1.1875 0l1.078125 3.890625l0.390625 1.4375q0.03125 -0.109375 0.359375 -1.390625l1.0625 -3.9375l1.171875 0l1.015625 3.90625l0.34375 1.28125l0.375 -1.296875l1.1562805 -3.890625l1.109375 0l-2.1094055 6.734375l-1.171875 0l-1.078125 -4.03125l-0.265625 -1.15625l-1.359375 5.1875l-1.203125 0zm8.515778 0l0 -9.3125l1.265625 0l4.890625 7.3125l0 -7.3125l1.1875 0l0 9.3125l-1.265625 0l-4.890625 -7.3125l0 7.3125l-1.1875 0zm9.078308 -3.375q0 -1.875 1.03125 -2.765625q0.875 -0.75 2.125 -0.75q1.390625 0 2.265625 0.90625q0.890625 0.90625 0.890625 2.515625q0 1.296875 -0.390625 2.046875q-0.390625 0.75 -1.140625 1.171875q-0.75 0.40625 -1.625 0.40625q-1.421875 0 -2.296875 -0.90625q-0.859375 -0.90625 -0.859375 -2.625zm1.171875 0q0 1.296875 0.5625 1.953125q0.5625 0.640625 1.421875 0.640625q0.84375 0 1.40625 -0.640625q0.578125 -0.65625 0.578125 -1.984375q0 -1.25 -0.578125 -1.890625q-0.5625 -0.65625 -1.40625 -0.65625q-0.859375 0 -1.421875 0.640625q-0.5625 0.640625 -0.5625 1.9375zm11.037476 3.375l0 -0.84375q-0.640625 1.0 -1.890625 1.0q-0.796875 0 -1.484375 -0.4375q-0.671875 -0.453125 -1.046875 -1.25q-0.375 -0.796875 -0.375 -1.828125q0 -1.015625 0.34375 -1.828125q0.34375 -0.828125 1.015625 -1.265625q0.671875 -0.4375 1.5 -0.4375q0.609375 0 1.078125 0.265625q0.484375 0.25 0.78125 0.65625l0 -3.34375l1.140625 0l0 9.3125l-1.0625 0zm-3.609375 -3.359375q0 1.296875 0.53125 1.9375q0.546875 0.640625 1.296875 0.640625q0.75 0 1.265625 -0.609375q0.53125 -0.625 0.53125 -1.875q0 -1.390625 -0.53125 -2.03125q-0.53125 -0.65625 -1.3125 -0.65625q-0.765625 0 -1.28125 0.625q-0.5 0.625 -0.5 1.96875zm11.256226 1.1875l1.1875 0.140625q-0.28125 1.046875 -1.046875 1.625q-0.75 0.5625 -1.921875 0.5625q-1.484375 0 -2.359375 -0.90625q-0.859375 -0.921875 -0.859375 -2.5625q0 -1.703125 0.875 -2.640625q0.890625 -0.9375 2.28125 -0.9375q1.359375 0 2.203125 0.921875q0.859375 0.921875 0.859375 2.578125q0 0.109375 0 0.3125l-5.03125 0q0.0625 1.109375 0.625 1.703125q0.5625 0.59375 1.40625 0.59375q0.640625 0 1.078125 -0.328125q0.453125 -0.34375 0.703125 -1.0625zm-3.75 -1.84375l3.765625 0q-0.078125 -0.859375 -0.4375 -1.28125q-0.546875 -0.65625 -1.40625 -0.65625q-0.796875 0 -1.328125 0.53125q-0.53125 0.515625 -0.59375 1.40625z" fill-rule="nonzero"></path><path fill="#000000" d="m496.36368 74.85852q-0.953125 -1.1875 -1.609375 -2.78125q-0.65625 -1.609375 -0.65625 -3.328125q0 -1.5 0.5 -2.890625q0.5625 -1.609375 1.765625 -3.2031212l0.8125 0q-0.765625 1.328125 -1.015625 1.8906212q-0.390625 0.875 -0.609375 1.828125q-0.265625 1.1875 -0.265625 2.390625q0 3.046875 1.890625 6.09375l-0.8125 0z" fill-rule="nonzero"></path><path fill="#000000" d="m501.98953 63.1554l-0.171875 6.531246l-0.984375 0l-0.1875 -6.531246l1.34375 0zm-0.671875 7.406246q0.171875 0 0.3125 0.078125q0.15625 0.0625 0.265625 0.171875q0.125 0.109375 0.1875 0.265625q0.0625 0.15625 0.0625 0.328125q0 0.171875 -0.0625 0.328125q-0.0625 0.15625 -0.1875 0.265625q-0.109375 0.109375 -0.265625 0.171875q-0.140625 0.0625 -0.3125 0.0625q-0.171875 0 -0.328125 -0.0625q-0.15625 -0.0625 -0.28125 -0.171875q-0.109375 -0.109375 -0.171875 -0.265625q-0.0625 -0.15625 -0.0625 -0.328125q0 -0.171875 0.0625 -0.328125q0.0625 -0.15625 0.171875 -0.265625q0.125 -0.109375 0.28125 -0.171875q0.15625 -0.078125 0.328125 -0.078125zm9.734131 1.328125q-0.4375 0.171875 -0.890625 0.25q-0.453125 0.078125 -0.9375 0.078125q-1.5 0 -2.328125 -0.8125q-0.8125 -0.828125 -0.8125 -2.40625q0 -0.75 0.234375 -1.359375q0.234375 -0.625 0.65625 -1.0625q0.4375 -0.4375 1.015625 -0.671875q0.59375 -0.25 1.3125 -0.25q0.484375 0 0.921875 0.078125q0.4375 0.0625 0.828125 0.234375l0 1.046875q-0.421875 -0.21875 -0.84375 -0.3125q-0.421875 -0.09375 -0.890625 -0.09375q-0.421875 0 -0.796875 0.15625q-0.375 0.15625 -0.671875 0.46875q-0.28125 0.296875 -0.453125 0.734375q-0.15625 0.4375 -0.15625 1.0q0 1.15625 0.5625 1.734375q0.5625 0.5625 1.5625 0.5625q0.453125 0 0.875 -0.09375q0.421875 -0.109375 0.8125 -0.3125l0 1.03125zm6.9216003 0.234375l0 -4.578125q0 -0.296875 -0.03125 -0.484375q-0.015625 -0.1875 -0.0625 -0.296875q-0.046875 -0.125 -0.125 -0.15625q-0.0625 -0.046875 -0.171875 -0.046875q-0.125 0 -0.234375 0.078125q-0.109375 0.0625 -0.234375 0.234375q-0.125 0.171875 -0.28125 0.46875q-0.140625 0.28125 -0.34375 0.6875l0 4.09375l-1.015625 0l0 -4.453125q0 -0.359375 -0.03125 -0.5625q-0.015625 -0.21875 -0.0625 -0.34375q-0.046875 -0.125 -0.125 -0.15625q-0.0625 -0.046875 -0.171875 -0.046875q-0.125 0 -0.234375 0.0625q-0.09375 0.0625 -0.21875 0.234375q-0.125 0.15625 -0.28125 0.453125q-0.140625 0.28125 -0.34375 0.71875l0 4.09375l-1.015625 0l0 -6.375l0.84375 0l0.046875 1.21875q0.15625 -0.359375 0.3125 -0.609375q0.15625 -0.265625 0.3125 -0.421875q0.171875 -0.15625 0.359375 -0.21875q0.1875 -0.078125 0.421875 -0.078125q0.515625 0 0.78125 0.34375q0.265625 0.328125 0.265625 1.03125q0.15625 -0.328125 0.296875 -0.578125q0.15625 -0.265625 0.3125 -0.4375q0.171875 -0.171875 0.375 -0.265625q0.203125 -0.09375 0.46875 -0.09375q1.203125 0 1.203125 1.84375l0 4.640625l-1.015625 0zm2.4528809 -3.046875q0 -0.8125 0.21875 -1.4375q0.234375 -0.640625 0.640625 -1.078125q0.40625 -0.4375 0.984375 -0.65625q0.578125 -0.234375 1.28125 -0.234375q0.296875 0 0.59375 0.046875q0.296875 0.03125 0.578125 0.109375l0 -2.6718712l1.109375 0l0 8.968746l-0.984375 0l-0.03125 -1.203125q-0.46875 0.671875 -1.015625 1.0q-0.53125 0.3125 -1.15625 0.3125q-0.546875 0 -0.96875 -0.21875q-0.40625 -0.234375 -0.6875 -0.640625q-0.28125 -0.421875 -0.421875 -1.0q-0.140625 -0.59375 -0.140625 -1.296875zm1.140625 -0.078125q0 1.15625 0.328125 1.734375q0.34375 0.5625 0.96875 0.5625q0.421875 0 0.875 -0.375q0.46875 -0.375 0.984375 -1.109375l0 -2.96875q-0.265625 -0.125 -0.59375 -0.1875q-0.328125 -0.0625 -0.65625 -0.0625q-0.90625 0 -1.40625 0.578125q-0.5 0.578125 -0.5 1.828125zm11.734131 0.609375q0 0.546875 -0.21875 1.03125q-0.21875 0.46875 -0.671875 0.828125q-0.4375 0.359375 -1.109375 0.5625q-0.671875 0.203125 -1.5625 0.203125q-0.5 0 -0.890625 -0.03125q-0.390625 -0.03125 -0.734375 -0.078125l0 -0.984375q0.390625 0.0625 0.828125 0.109375q0.4375 0.03125 0.890625 0.03125q0.625 0 1.0625 -0.109375q0.4375 -0.109375 0.71875 -0.3125q0.28125 -0.21875 0.40625 -0.515625q0.125 -0.296875 0.125 -0.671875q0 -0.34375 -0.15625 -0.59375q-0.140625 -0.265625 -0.421875 -0.4375q-0.265625 -0.171875 -0.65625 -0.25q-0.390625 -0.09375 -0.84375 -0.09375l-0.9375 0l0 -0.90625l0.953125 0q0.375 0 0.671875 -0.09375q0.3125 -0.09375 0.53125 -0.28125q0.21875 -0.1875 0.328125 -0.453125q0.125 -0.265625 0.125 -0.609375q0 -0.671875 -0.40625 -0.96875q-0.40625 -0.3125 -1.1875 -0.3125q-0.421875 0 -0.875 0.09375q-0.4375 0.078125 -0.9375 0.234375l0 -0.96875q0.21875 -0.062496185 0.453125 -0.124996185q0.25 -0.0625 0.484375 -0.09375q0.25 -0.046875 0.484375 -0.0625q0.25 -0.03125 0.46875 -0.03125q0.671875 0 1.171875 0.140625q0.5 0.140625 0.828125 0.4062462q0.34375 0.265625 0.515625 0.65625q0.171875 0.375 0.171875 0.84375q0 0.71875 -0.375 1.203125q-0.359375 0.484375 -1.0 0.765625q0.328125 0.046875 0.640625 0.203125q0.3125 0.15625 0.5625 0.390625q0.25 0.234375 0.40625 0.5625q0.15625 0.328125 0.15625 0.71875z" fill-rule="nonzero"></path><path fill="#000000" d="m536.00385 74.85852l-0.828125 0q1.90625 -3.046875 1.90625 -6.09375q0 -1.203125 -0.28125 -2.375q-0.203125 -0.953125 -0.59375 -1.828125q-0.25 -0.5624962 -1.03125 -1.9062462l0.828125 0q1.1875 1.5937462 1.765625 3.2031212q0.484375 1.390625 0.484375 2.890625q0 1.71875 -0.65625 3.328125q-0.65625 1.59375 -1.59375 2.78125z" fill-rule="nonzero"></path><path fill="#000000" fill-opacity="0.0" d="m410.4121 59.324146l51.590546 0" fill-rule="nonzero"></path><path stroke="#000000" stroke-width="2.0" stroke-linejoin="round" stroke-linecap="butt" d="m410.4121 59.324146l39.590546 0" fill-rule="evenodd"></path><path fill="#000000" stroke="#000000" stroke-width="2.0" stroke-linecap="butt" d="m450.00266 62.627613l9.076202 -3.3034668l-9.076202 -3.303463z" fill-rule="evenodd"></path><path fill="#fff2cc" d="m621.73755 42.872868l0 0c0 -4.54303 3.6828613 -8.225887 8.225891 -8.225887l91.674194 0c2.1816406 0 4.273926 0.86665344 5.8165894 2.4093094c1.5426636 1.5426521 2.4093018 3.6349373 2.4093018 5.816578l0 32.90256c0 4.54303 -3.6828613 8.2258835 -8.225891 8.2258835l-91.674194 0c-4.54303 0 -8.225891 -3.6828537 -8.225891 -8.2258835z" fill-rule="nonzero"></path><path stroke="#000000" stroke-width="1.0" stroke-linejoin="round" stroke-linecap="butt" d="m621.73755 42.872868l0 0c0 -4.54303 3.6828613 -8.225887 8.225891 -8.225887l91.674194 0c2.1816406 0 4.273926 0.86665344 5.8165894 2.4093094c1.5426636 1.5426521 2.4093018 3.6349373 2.4093018 5.816578l0 32.90256c0 4.54303 -3.6828613 8.2258835 -8.225891 8.2258835l-91.674194 0c-4.54303 0 -8.225891 -3.6828537 -8.225891 -8.2258835z" fill-rule="nonzero"></path><path fill="#000000" d="m646.8617 56.124146l0 -9.3125l6.28125 0l0 1.109375l-5.046875 0l0 2.875l4.375 0l0 1.09375l-4.375 0l0 4.234375l-1.234375 0zm7.9069824 0l0 -9.3125l1.140625 0l0 9.3125l-1.140625 0zm2.5704956 -3.375q0 -1.875 1.03125 -2.765625q0.875 -0.75 2.125 -0.75q1.390625 0 2.265625 0.90625q0.890625 0.90625 0.890625 2.515625q0 1.296875 -0.390625 2.046875q-0.390625 0.75 -1.140625 1.171875q-0.75 0.40625 -1.625 0.40625q-1.421875 0 -2.296875 -0.90625q-0.859375 -0.90625 -0.859375 -2.625zm1.171875 0q0 1.296875 0.5625 1.953125q0.5625 0.640625 1.421875 0.640625q0.84375 0 1.40625 -0.640625q0.578125 -0.65625 0.578125 -1.984375q0 -1.25 -0.578125 -1.890625q-0.5625 -0.65625 -1.40625 -0.65625q-0.859375 0 -1.421875 0.640625q-0.5625 0.640625 -0.5625 1.9375zm7.8968506 3.375l-2.0625 -6.734375l1.1875 0l1.078125 3.890625l0.390625 1.4375q0.03125 -0.109375 0.359375 -1.390625l1.0625 -3.9375l1.171875 0l1.015625 3.90625l0.34375 1.28125l0.375 -1.296875l1.15625 -3.890625l1.109375 0l-2.109375 6.734375l-1.171875 0l-1.078125 -4.03125l-0.265625 -1.15625l-1.359375 5.1875l-1.203125 0zm8.515747 0l0 -9.3125l1.265625 0l4.890625 7.3125l0 -7.3125l1.1875 0l0 9.3125l-1.265625 0l-4.890625 -7.3125l0 7.3125l-1.1875 0zm9.078308 -3.375q0 -1.875 1.03125 -2.765625q0.875 -0.75 2.125 -0.75q1.390625 0 2.265625 0.90625q0.890625 0.90625 0.890625 2.515625q0 1.296875 -0.390625 2.046875q-0.390625 0.75 -1.140625 1.171875q-0.75 0.40625 -1.625 0.40625q-1.421875 0 -2.296875 -0.90625q-0.859375 -0.90625 -0.859375 -2.625zm1.171875 0q0 1.296875 0.5625 1.953125q0.5625 0.640625 1.421875 0.640625q0.84375 0 1.40625 -0.640625q0.578125 -0.65625 0.578125 -1.984375q0 -1.25 -0.578125 -1.890625q-0.5625 -0.65625 -1.40625 -0.65625q-0.859375 0 -1.421875 0.640625q-0.5625 0.640625 -0.5625 1.9375zm11.037476 3.375l0 -0.84375q-0.640625 1.0 -1.890625 1.0q-0.796875 0 -1.484375 -0.4375q-0.671875 -0.453125 -1.046875 -1.25q-0.375 -0.796875 -0.375 -1.828125q0 -1.015625 0.34375 -1.828125q0.34375 -0.828125 1.015625 -1.265625q0.671875 -0.4375 1.5 -0.4375q0.609375 0 1.078125 0.265625q0.484375 0.25 0.78125 0.65625l0 -3.34375l1.140625 0l0 9.3125l-1.0625 0zm-3.609375 -3.359375q0 1.296875 0.53125 1.9375q0.546875 0.640625 1.296875 0.640625q0.75 0 1.265625 -0.609375q0.53125 -0.625 0.53125 -1.875q0 -1.390625 -0.53125 -2.03125q-0.53125 -0.65625 -1.3125 -0.65625q-0.765625 0 -1.28125 0.625q-0.5 0.625 -0.5 1.96875zm11.256226 1.1875l1.1875 0.140625q-0.28125 1.046875 -1.046875 1.625q-0.75 0.5625 -1.921875 0.5625q-1.484375 0 -2.359375 -0.90625q-0.859375 -0.921875 -0.859375 -2.5625q0 -1.703125 0.875 -2.640625q0.890625 -0.9375 2.28125 -0.9375q1.359375 0 2.203125 0.921875q0.859375 0.921875 0.859375 2.578125q0 0.109375 0 0.3125l-5.03125 0q0.0625 1.109375 0.625 1.703125q0.5625 0.59375 1.40625 0.59375q0.640625 0 1.078125 -0.328125q0.453125 -0.34375 0.703125 -1.0625zm-3.75 -1.84375l3.765625 0q-0.078125 -0.859375 -0.4375 -1.28125q-0.546875 -0.65625 -1.40625 -0.65625q-0.796875 0 -1.328125 0.53125q-0.53125 0.515625 -0.59375 1.40625z" fill-rule="nonzero"></path><path fill="#000000" d="m641.43365 74.85852q-0.953125 -1.1875 -1.609375 -2.78125q-0.65625 -1.609375 -0.65625 -3.328125q0 -1.5 0.5 -2.890625q0.5625 -1.609375 1.765625 -3.2031212l0.8125 0q-0.765625 1.328125 -1.015625 1.8906212q-0.390625 0.875 -0.609375 1.828125q-0.265625 1.1875 -0.265625 2.390625q0 3.046875 1.890625 6.09375l-0.8125 0z" fill-rule="nonzero"></path><path fill="#000000" d="m647.0595 63.1554l-0.171875 6.531246l-0.984375 0l-0.1875 -6.531246l1.34375 0zm-0.671875 7.406246q0.171875 0 0.3125 0.078125q0.15625 0.0625 0.265625 0.171875q0.125 0.109375 0.1875 0.265625q0.0625 0.15625 0.0625 0.328125q0 0.171875 -0.0625 0.328125q-0.0625 0.15625 -0.1875 0.265625q-0.109375 0.109375 -0.265625 0.171875q-0.140625 0.0625 -0.3125 0.0625q-0.171875 0 -0.328125 -0.0625q-0.15625 -0.0625 -0.28125 -0.171875q-0.109375 -0.109375 -0.171875 -0.265625q-0.0625 -0.15625 -0.0625 -0.328125q0 -0.171875 0.0625 -0.328125q0.0625 -0.15625 0.171875 -0.265625q0.125 -0.109375 0.28125 -0.171875q0.15625 -0.078125 0.328125 -0.078125zm6.952881 -6.5l-1.890625 0l0 -0.9062462l3.0 0l0 8.046871l1.90625 0l0 0.921875l-5.109375 0l0 -0.921875l2.09375 0l0 -7.140625zm9.249756 8.0625l-0.03125 -0.859375q-0.515625 0.515625 -1.0625 0.75q-0.53125 0.21875 -1.109375 0.21875q-0.546875 0 -0.9375 -0.140625q-0.390625 -0.140625 -0.640625 -0.375q-0.25 -0.25 -0.375 -0.578125q-0.109375 -0.328125 -0.109375 -0.71875q0 -0.953125 0.703125 -1.5q0.71875 -0.546875 2.125 -0.546875l1.3125 0l0 -0.546875q0 -0.578125 -0.359375 -0.90625q-0.359375 -0.34375 -1.109375 -0.34375q-0.53125 0 -1.0625 0.125q-0.515625 0.109375 -1.078125 0.34375l0 -1.0q0.21875 -0.078125 0.46875 -0.140625q0.25 -0.078125 0.53125 -0.140625q0.296875 -0.0625 0.609375 -0.09375q0.3125 -0.03125 0.625 -0.03125q0.578125 0 1.03125 0.125q0.46875 0.125 0.78125 0.390625q0.328125 0.25 0.5 0.65625q0.171875 0.390625 0.171875 0.921875l0 4.390625l-0.984375 0zm-0.125 -2.90625l-1.390625 0q-0.421875 0 -0.71875 0.09375q-0.296875 0.078125 -0.484375 0.234375q-0.1875 0.140625 -0.28125 0.359375q-0.09375 0.21875 -0.09375 0.484375q0 0.171875 0.046875 0.34375q0.0625 0.171875 0.1875 0.3125q0.125 0.125 0.328125 0.203125q0.203125 0.0625 0.5 0.0625q0.375 0 0.859375 -0.21875q0.5 -0.234375 1.046875 -0.734375l0 -1.140625zm8.405945 1.171875q0 0.328125 -0.125 0.59375q-0.109375 0.265625 -0.3125 0.484375q-0.1875 0.203125 -0.453125 0.34375q-0.25 0.140625 -0.546875 0.25q-0.296875 0.09375 -0.609375 0.125q-0.3125 0.046875 -0.609375 0.046875q-0.640625 0 -1.1875 -0.0625q-0.546875 -0.046875 -1.0625 -0.171875l0 -1.015625q0.5625 0.15625 1.109375 0.25q0.546875 0.078125 1.09375 0.078125q0.796875 0 1.171875 -0.21875q0.390625 -0.21875 0.390625 -0.625q0 -0.171875 -0.0625 -0.296875q-0.0625 -0.140625 -0.21875 -0.265625q-0.15625 -0.125 -0.5 -0.25q-0.328125 -0.140625 -0.90625 -0.3125q-0.421875 -0.125 -0.796875 -0.28125q-0.359375 -0.171875 -0.625 -0.390625q-0.265625 -0.21875 -0.421875 -0.515625q-0.15625 -0.296875 -0.15625 -0.703125q0 -0.265625 0.125 -0.578125q0.125 -0.328125 0.421875 -0.59375q0.296875 -0.28125 0.796875 -0.453125q0.515625 -0.1875 1.28125 -0.1875q0.375 0 0.828125 0.046875q0.453125 0.03125 0.953125 0.140625l0 0.984375q-0.515625 -0.140625 -0.984375 -0.1875q-0.46875 -0.0625 -0.8125 -0.0625q-0.40625 0 -0.6875 0.0625q-0.28125 0.0625 -0.46875 0.171875q-0.171875 0.109375 -0.25 0.265625q-0.0625 0.140625 -0.0625 0.3125q0 0.171875 0.0625 0.3125q0.0625 0.140625 0.234375 0.28125q0.1875 0.125 0.515625 0.25q0.328125 0.125 0.84375 0.28125q0.5625 0.171875 0.953125 0.359375q0.390625 0.171875 0.625 0.390625q0.25 0.21875 0.34375 0.5q0.109375 0.28125 0.109375 0.640625zm7.421631 1.640625q-0.375 0.09375 -0.78125 0.140625q-0.390625 0.046875 -0.8125 0.046875q-1.203125 0 -1.796875 -0.546875q-0.578125 -0.546875 -0.578125 -1.671875l0 -3.328125l-1.78125 0l0 -0.921875l1.78125 0l0 -1.7499962l1.09375 -0.28125l0 2.0312462l2.875 0l0 0.921875l-2.875 0l0 3.25q0 0.671875 0.359375 1.015625q0.375 0.34375 1.09375 0.34375q0.296875 0 0.65625 -0.046875q0.359375 -0.046875 0.765625 -0.15625l0 0.953125zm8.312256 2.703125l-7.140625 0l0 -0.921875l7.140625 0l0 0.921875zm6.156006 -2.84375q-0.4375 0.171875 -0.890625 0.25q-0.453125 0.078125 -0.9375 0.078125q-1.5 0 -2.328125 -0.8125q-0.8125 -0.828125 -0.8125 -2.40625q0 -0.75 0.234375 -1.359375q0.234375 -0.625 0.65625 -1.0625q0.4375 -0.4375 1.015625 -0.671875q0.59375 -0.25 1.3125 -0.25q0.484375 0 0.921875 0.078125q0.4375 0.0625 0.828125 0.234375l0 1.046875q-0.421875 -0.21875 -0.84375 -0.3125q-0.421875 -0.09375 -0.890625 -0.09375q-0.421875 0 -0.796875 0.15625q-0.375 0.15625 -0.671875 0.46875q-0.28125 0.296875 -0.453125 0.734375q-0.15625 0.4375 -0.15625 1.0q0 1.15625 0.5625 1.734375q0.5625 0.5625 1.5625 0.5625q0.453125 0 0.875 -0.09375q0.421875 -0.109375 0.8125 -0.3125l0 1.03125zm6.92157 0.234375l0 -4.578125q0 -0.296875 -0.03125 -0.484375q-0.015625 -0.1875 -0.0625 -0.296875q-0.046875 -0.125 -0.125 -0.15625q-0.0625 -0.046875 -0.171875 -0.046875q-0.125 0 -0.234375 0.078125q-0.109375 0.0625 -0.234375 0.234375q-0.125 0.171875 -0.28125 0.46875q-0.140625 0.28125 -0.34375 0.6875l0 4.09375l-1.015625 0l0 -4.453125q0 -0.359375 -0.03125 -0.5625q-0.015625 -0.21875 -0.0625 -0.34375q-0.046875 -0.125 -0.125 -0.15625q-0.0625 -0.046875 -0.171875 -0.046875q-0.125 0 -0.234375 0.0625q-0.09375 0.0625 -0.21875 0.234375q-0.125 0.15625 -0.28125 0.453125q-0.140625 0.28125 -0.34375 0.71875l0 4.09375l-1.015625 0l0 -6.375l0.84375 0l0.046875 1.21875q0.15625 -0.359375 0.3125 -0.609375q0.15625 -0.265625 0.3125 -0.421875q0.171875 -0.15625 0.359375 -0.21875q0.1875 -0.078125 0.421875 -0.078125q0.515625 0 0.78125 0.34375q0.265625 0.328125 0.265625 1.03125q0.15625 -0.328125 0.296875 -0.578125q0.15625 -0.265625 0.3125 -0.4375q0.171875 -0.171875 0.375 -0.265625q0.203125 -0.09375 0.46875 -0.09375q1.203125 0 1.203125 1.84375l0 4.640625l-1.015625 0zm2.4528809 -3.046875q0 -0.8125 0.21875 -1.4375q0.234375 -0.640625 0.640625 -1.078125q0.40625 -0.4375 0.984375 -0.65625q0.578125 -0.234375 1.28125 -0.234375q0.296875 0 0.59375 0.046875q0.296875 0.03125 0.578125 0.109375l0 -2.6718712l1.109375 0l0 8.968746l-0.984375 0l-0.03125 -1.203125q-0.46875 0.671875 -1.015625 1.0q-0.53125 0.3125 -1.15625 0.3125q-0.546875 0 -0.96875 -0.21875q-0.40625 -0.234375 -0.6875 -0.640625q-0.28125 -0.421875 -0.421875 -1.0q-0.140625 -0.59375 -0.140625 -1.296875zm1.140625 -0.078125q0 1.15625 0.328125 1.734375q0.34375 0.5625 0.96875 0.5625q0.421875 0 0.875 -0.375q0.46875 -0.375 0.984375 -1.109375l0 -2.96875q-0.265625 -0.125 -0.59375 -0.1875q-0.328125 -0.0625 -0.65625 -0.0625q-0.90625 0 -1.40625 0.578125q-0.5 0.578125 -0.5 1.828125z" fill-rule="nonzero"></path><path fill="#000000" d="m710.3853 74.85852l-0.828125 0q1.90625 -3.046875 1.90625 -6.09375q0 -1.203125 -0.28125 -2.375q-0.203125 -0.953125 -0.59375 -1.828125q-0.25 -0.5624962 -1.03125 -1.9062462l0.828125 0q1.1875 1.5937462 1.765625 3.2031212q0.484375 1.390625 0.484375 2.890625q0 1.71875 -0.65625 3.328125q-0.65625 1.59375 -1.59375 2.78125z" fill-rule="nonzero"></path><path fill="#000000" fill-opacity="0.0" d="m570.1378 59.324146l51.590576 0" fill-rule="nonzero"></path><path stroke="#000000" stroke-width="2.0" stroke-linejoin="round" stroke-linecap="butt" d="m570.1378 59.324146l39.590576 0" fill-rule="evenodd"></path><path fill="#000000" stroke="#000000" stroke-width="2.0" stroke-linecap="butt" d="m609.7284 62.627613l9.076172 -3.3034668l-9.076172 -3.303463z" fill-rule="evenodd"></path><path fill="#000000" fill-opacity="0.0" d="m196.34645 84.8399c18.271652 9.547241 74.2393 47.077858 109.62993 57.283455c35.390625 10.205612 67.65222 13.332901 102.7139 3.9501343c35.061707 -9.382767 89.71347 -50.205597 107.65616 -60.24671" fill-rule="nonzero"></path><path stroke="#000000" stroke-width="2.0" stroke-linejoin="round" stroke-linecap="butt" d="m206.78368 90.761444l0.6662445 0.39230347c0.8946686 0.5294266 1.8172455 1.0777435 2.7659607 1.6432571c1.8974304 1.1310425 3.8994446 2.3308792 5.991791 3.5860138c8.3694 5.0205383 18.18428 10.925842 28.534119 16.851723c20.699677 11.8517685 43.539246 23.785828 61.23459 28.88861c35.390656 10.205597 67.65222 13.332901 102.7139 3.9501343c35.061707 -9.382751 89.71347 -50.20559 107.65616 -60.24671" fill-rule="evenodd"></path><path fill="#000000" stroke="#000000" stroke-width="2.0" stroke-linecap="butt" d="m208.4138 87.8882l-9.5243225 -1.6055145l6.264038 7.352005z" fill-rule="evenodd"></path></g></svg>

