<?xml version="1.0" standalone="yes"?>

<svg version="1.1" viewBox="0.0 0.0 358.78477690288713 100.0" fill="none" stroke="none" stroke-linecap="square" stroke-miterlimit="10" xmlns="http://www.w3.org/2000/svg" xmlns:xlink="http://www.w3.org/1999/xlink"><clipPath id="p.0"><path d="m0 0l358.7848 0l0 100.0l-358.7848 0l0 -100.0z" clip-rule="nonzero"></path></clipPath><g clip-path="url(#p.0)"><path fill="#000000" fill-opacity="0.0" d="m0 0l358.7848 0l0 100.0l-358.7848 0z" fill-rule="nonzero"></path><path fill="#d9ead3" d="m10.299226 42.852627l0 0c0 -10.967421 8.890849 -19.858269 19.858269 -19.858269l0 0c5.266739 0 10.317768 2.0922031 14.041916 5.816351c3.7241478 3.7241497 5.816353 8.775175 5.816353 14.041918l0 0c0 10.967419 -8.89085 19.858265 -19.858269 19.858265l0 0c-10.967419 0 -19.858269 -8.890846 -19.858269 -19.858265z" fill-rule="nonzero"></path><path stroke="#000000" stroke-width="1.0" stroke-linejoin="round" stroke-linecap="butt" d="m10.299226 42.852627l0 0c0 -10.967421 8.890849 -19.858269 19.858269 -19.858269l0 0c5.266739 0 10.317768 2.0922031 14.041916 5.816351c3.7241478 3.7241497 5.816353 8.775175 5.816353 14.041918l0 0c0 10.967419 -8.89085 19.858265 -19.858269 19.858265l0 0c-10.967419 0 -19.858269 -8.890846 -19.858269 -19.858265z" fill-rule="nonzero"></path><path fill="#fff2cc" d="m86.1566 31.318222l0 0c0 -3.1833115 2.5805817 -5.763895 5.763893 -5.763895l64.22024 0c1.5286865 0 2.994751 0.6072674 4.075699 1.6882057c1.0809326 1.0809402 1.6882019 2.5470104 1.6882019 4.0756893l0 23.05489c0 3.1833115 -2.5805817 5.763893 -5.7639008 5.763893l-64.22024 0c-3.1833115 0 -5.763893 -2.5805817 -5.763893 -5.763893z" fill-rule="nonzero"></path><path stroke="#000000" stroke-width="1.0" stroke-linejoin="round" stroke-linecap="butt" d="m86.1566 31.318222l0 0c0 -3.1833115 2.5805817 -5.763895 5.763893 -5.763895l64.22024 0c1.5286865 0 2.994751 0.6072674 4.075699 1.6882057c1.0809326 1.0809402 1.6882019 2.5470104 1.6882019 4.0756893l0 23.05489c0 3.1833115 -2.5805817 5.763893 -5.7639008 5.763893l-64.22024 0c-3.1833115 0 -5.763893 -2.5805817 -5.763893 -5.763893z" fill-rule="nonzero"></path><path fill="#000000" d="m106.281395 38.676914l-0.171875 6.53125l-0.984375 0l-0.1875 -6.53125l1.34375 0zm-0.671875 7.40625q0.171875 0 0.3125 0.078125q0.15625 0.0625 0.265625 0.171875q0.125 0.109375 0.1875 0.265625q0.0625 0.15625 0.0625 0.328125q0 0.171875 -0.0625 0.328125q-0.0625 0.15625 -0.1875 0.265625q-0.109375 0.109375 -0.265625 0.171875q-0.140625 0.0625 -0.3125 0.0625q-0.171875 0 -0.328125 -0.0625q-0.15625 -0.0625 -0.28125 -0.171875q-0.109375 -0.109375 -0.171875 -0.265625q-0.0625 -0.15625 -0.0625 -0.328125q0 -0.171875 0.0625 -0.328125q0.0625 -0.15625 0.171875 -0.265625q0.125 -0.109375 0.28125 -0.171875q0.15625 -0.078125 0.328125 -0.078125zm9.921616 1.46875q-0.375 0.09375 -0.78125 0.140625q-0.390625 0.046875 -0.8125 0.046875q-1.203125 0 -1.796875 -0.546875q-0.578125 -0.546875 -0.578125 -1.671875l0 -3.328125l-1.78125 0l0 -0.921875l1.78125 0l0 -1.75l1.09375 -0.28125l0 2.03125l2.875 0l0 0.921875l-2.875 0l0 3.25q0 0.671875 0.359375 1.015625q0.375 0.34375 1.09375 0.34375q0.296875 0 0.65625 -0.046875q0.359375 -0.046875 0.765625 -0.15625l0 0.953125zm2.4528656 -6.28125l1.0 0l0.03125 1.171875q0.5625 -0.671875 1.109375 -0.96875q0.5625 -0.3125 1.109375 -0.3125q1.0 0 1.5 0.640625q0.515625 0.640625 0.484375 1.90625l-1.125 0q0.03125 -0.84375 -0.234375 -1.21875q-0.265625 -0.375 -0.78125 -0.375q-0.21875 0 -0.453125 0.078125q-0.21875 0.078125 -0.453125 0.25q-0.234375 0.171875 -0.5 0.453125q-0.265625 0.265625 -0.578125 0.65625l0 4.09375l-1.109375 0l0 -6.375zm12.734108 0l-2.171875 5.703125q-0.34375 0.875 -0.7031174 1.5q-0.359375 0.625 -0.78125 1.03125q-0.421875 0.40625 -0.9375 0.59375q-0.5 0.1875 -1.125 0.1875q-0.171875 0 -0.3125 -0.015625q-0.125 0 -0.28125 -0.015625l0 -1.0q0.140625 0.015625 0.296875 0.03125q0.171875 0.015625 0.359375 0.015625q0.296875 0 0.5625 -0.09375q0.265625 -0.078125 0.5 -0.28125q0.234375 -0.203125 0.453125 -0.515625q0.21875 -0.3125 0.421875 -0.765625l-2.546875 -6.375l1.25 0l1.609375 4.21875l0.328125 0.984375l0.37499237 -1.015625l1.484375 -4.1875l1.21875 0zm6.2028656 6.375l0 -4.578125q0 -0.296875 -0.03125 -0.484375q-0.015625 -0.1875 -0.0625 -0.296875q-0.046875 -0.125 -0.125 -0.15625q-0.0625 -0.046875 -0.171875 -0.046875q-0.125 0 -0.234375 0.078125q-0.109375 0.0625 -0.234375 0.234375q-0.125 0.171875 -0.28125 0.46875q-0.140625 0.28125 -0.34375 0.6875l0 4.09375l-1.015625 0l0 -4.453125q0 -0.359375 -0.03125 -0.5625q-0.015625 -0.21875 -0.0625 -0.34375q-0.046875 -0.125 -0.125 -0.15625q-0.0625 -0.046875 -0.171875 -0.046875q-0.125 0 -0.234375 0.0625q-0.09375 0.0625 -0.21875 0.234375q-0.125 0.15625 -0.28125 0.453125q-0.140625 0.28125 -0.34375 0.71875l0 4.09375l-1.015625 0l0 -6.375l0.84375 0l0.046875 1.21875q0.15625 -0.359375 0.3125 -0.609375q0.15625 -0.265625 0.3125 -0.421875q0.171875 -0.15625 0.359375 -0.21875q0.1875 -0.078125 0.421875 -0.078125q0.515625 0 0.78125 0.34375q0.265625 0.328125 0.265625 1.03125q0.15625 -0.328125 0.296875 -0.578125q0.15625 -0.265625 0.3125 -0.4375q0.171875 -0.171875 0.375 -0.265625q0.203125 -0.09375 0.46875 -0.09375q1.203125 0 1.203125 1.84375l0 4.640625l-1.015625 0zm8.171616 -3.515625q0 0.234375 -0.015625 0.390625q0 0.15625 -0.015625 0.296875l-4.484375 0q0 0.96875 0.546875 1.5q0.546875 0.515625 1.578125 0.515625q0.28125 0 0.5625 -0.015625q0.28125 -0.015625 0.53125 -0.046875q0.265625 -0.046875 0.5 -0.09375q0.25 -0.046875 0.453125 -0.109375l0 0.90625q-0.453125 0.125 -1.03125 0.203125q-0.5625 0.078125 -1.171875 0.078125q-0.8125 0 -1.40625 -0.21875q-0.59375 -0.21875 -0.96875 -0.640625q-0.375 -0.421875 -0.5625 -1.03125q-0.171875 -0.625 -0.171875 -1.390625q0 -0.671875 0.1875 -1.265625q0.1875 -0.609375 0.5625 -1.0625q0.375 -0.453125 0.90625 -0.71875q0.546875 -0.265625 1.234375 -0.265625q0.65625 0 1.171875 0.21875q0.515625 0.203125 0.859375 0.59375q0.359375 0.375 0.546875 0.921875q0.1875 0.546875 0.1875 1.234375zm-1.15625 -0.171875q0.015625 -0.421875 -0.09375 -0.765625q-0.09375 -0.359375 -0.3125 -0.609375q-0.203125 -0.25 -0.53125 -0.390625q-0.3125 -0.15625 -0.71875 -0.15625q-0.375 0 -0.671875 0.140625q-0.296875 0.140625 -0.515625 0.40625q-0.203125 0.25 -0.34375 0.609375q-0.125 0.34375 -0.171875 0.765625l3.359375 0z" fill-rule="nonzero"></path><path fill="#000000" fill-opacity="0.0" d="m50.015762 42.852627l36.125984 0" fill-rule="nonzero"></path><path stroke="#000000" stroke-width="2.0" stroke-linejoin="round" stroke-linecap="butt" d="m50.015762 42.852627l24.125977 0" fill-rule="evenodd"></path><path fill="#000000" stroke="#000000" stroke-width="2.0" stroke-linecap="butt" d="m74.14175 46.15609l9.076195 -3.303463l-9.076195 -3.3034668z" fill-rule="evenodd"></path><path fill="#fff2cc" d="m198.07462 31.318222l0 0c0 -3.1833115 2.5805817 -5.763895 5.7639008 -5.763895l64.22023 0c1.5286865 0 2.994751 0.6072674 4.0756836 1.6882057c1.0809631 1.0809402 1.6882324 2.5470104 1.6882324 4.0756893l0 23.05489c0 3.1833115 -2.580597 5.763893 -5.763916 5.763893l-64.22023 0c-3.183319 0 -5.7639008 -2.5805817 -5.7639008 -5.763893z" fill-rule="nonzero"></path><path stroke="#000000" stroke-width="1.0" stroke-linejoin="round" stroke-linecap="butt" d="m198.07462 31.318222l0 0c0 -3.1833115 2.5805817 -5.763895 5.7639008 -5.763895l64.22023 0c1.5286865 0 2.994751 0.6072674 4.0756836 1.6882057c1.0809631 1.0809402 1.6882324 2.5470104 1.6882324 4.0756893l0 23.05489c0 3.1833115 -2.580597 5.763893 -5.763916 5.763893l-64.22023 0c-3.183319 0 -5.7639008 -2.5805817 -5.7639008 -5.763893z" fill-rule="nonzero"></path><path fill="#000000" d="m218.19942 38.676914l-0.171875 6.53125l-0.984375 0l-0.1875 -6.53125l1.34375 0zm-0.671875 7.40625q0.171875 0 0.3125 0.078125q0.15625 0.0625 0.265625 0.171875q0.125 0.109375 0.1875 0.265625q0.0625 0.15625 0.0625 0.328125q0 0.171875 -0.0625 0.328125q-0.0625 0.15625 -0.1875 0.265625q-0.109375 0.109375 -0.265625 0.171875q-0.140625 0.0625 -0.3125 0.0625q-0.171875 0 -0.328125 -0.0625q-0.15625 -0.0625 -0.28125 -0.171875q-0.109375 -0.109375 -0.171875 -0.265625q-0.0625 -0.15625 -0.0625 -0.328125q0 -0.171875 0.0625 -0.328125q0.0625 -0.15625 0.171875 -0.265625q0.125 -0.109375 0.28125 -0.171875q0.15625 -0.078125 0.328125 -0.078125zm9.374741 -3.90625q0.171875 0.21875 0.265625 0.515625q0.109375 0.296875 0.109375 0.640625q0 0.484375 -0.1875 0.90625q-0.171875 0.40625 -0.515625 0.703125q-0.328125 0.28125 -0.796875 0.453125q-0.453125 0.15625 -1.0 0.15625q-0.40625 0 -0.75 -0.078125q-0.34375 -0.09375 -0.546875 -0.21875q-0.125 0.171875 -0.21875 0.34375q-0.078125 0.15625 -0.078125 0.34375q0 0.25 0.234375 0.40625q0.234375 0.15625 0.625 0.171875l1.671875 0.0625q0.46875 0.015625 0.875 0.125q0.40625 0.09375 0.6875 0.296875q0.296875 0.203125 0.453125 0.515625q0.171875 0.296875 0.171875 0.6875q0 0.421875 -0.1875 0.796875q-0.1875 0.390625 -0.578125 0.671875q-0.375 0.296875 -0.96875 0.46875q-0.59375 0.171875 -1.40625 0.171875q-0.765625 0 -1.3125 -0.125q-0.546875 -0.125 -0.890625 -0.34375q-0.34375 -0.21875 -0.515625 -0.53125q-0.15625 -0.296875 -0.15625 -0.65625q0 -0.46875 0.21875 -0.8125q0.21875 -0.34375 0.671875 -0.671875q-0.171875 -0.078125 -0.296875 -0.1875q-0.109375 -0.125 -0.1875 -0.25q-0.078125 -0.140625 -0.125 -0.296875q-0.03125 -0.15625 -0.03125 -0.296875q0 -0.40625 0.1875 -0.75q0.203125 -0.34375 0.46875 -0.65625q-0.125 -0.140625 -0.21875 -0.28125q-0.09375 -0.140625 -0.15625 -0.296875q-0.0625 -0.171875 -0.109375 -0.359375q-0.03125 -0.1875 -0.03125 -0.421875q0 -0.5 0.1875 -0.90625q0.1875 -0.40625 0.5 -0.6875q0.328125 -0.296875 0.78125 -0.453125q0.46875 -0.171875 1.03125 -0.171875q0.234375 0 0.453125 0.03125q0.21875 0.03125 0.375 0.078125l2.3125 0l0 0.90625l-1.015625 0zm-3.84375 6.390625q0 0.453125 0.46875 0.65625q0.46875 0.203125 1.3125 0.203125q0.53125 0 0.890625 -0.09375q0.359375 -0.09375 0.578125 -0.25q0.21875 -0.15625 0.3125 -0.359375q0.09375 -0.203125 0.09375 -0.40625q0 -0.390625 -0.328125 -0.578125q-0.3125 -0.171875 -0.96875 -0.203125l-1.65625 -0.0625q-0.203125 0.140625 -0.34375 0.265625q-0.140625 0.140625 -0.21875 0.28125q-0.078125 0.140625 -0.109375 0.265625q-0.03125 0.140625 -0.03125 0.28125zm0.34375 -5.21875q0 0.3125 0.09375 0.5625q0.109375 0.25 0.28125 0.4375q0.1875 0.171875 0.4375 0.28125q0.265625 0.09375 0.5625 0.09375q0.328125 0 0.578125 -0.109375q0.265625 -0.125 0.4375 -0.3125q0.171875 -0.1875 0.265625 -0.4375q0.09375 -0.25 0.09375 -0.515625q0 -0.296875 -0.109375 -0.546875q-0.09375 -0.265625 -0.28125 -0.4375q-0.171875 -0.171875 -0.421875 -0.265625q-0.25 -0.109375 -0.5625 -0.109375q-0.328125 0 -0.59375 0.125q-0.25 0.109375 -0.421875 0.296875q-0.171875 0.1875 -0.265625 0.4375q-0.09375 0.234375 -0.09375 0.5zm11.359116 4.296875l-1.0 0l-0.03125 -1.03125q-0.28125 0.328125 -0.546875 0.546875q-0.25 0.21875 -0.515625 0.359375q-0.25 0.125 -0.515625 0.171875q-0.25 0.0625 -0.53125 0.0625q-0.984375 0 -1.484375 -0.578125q-0.5 -0.578125 -0.5 -1.734375l0 -4.171875l1.109375 0l0 4.078125q0 1.46875 1.09375 1.46875q0.203125 0 0.390625 -0.0625q0.203125 -0.0625 0.40625 -0.203125q0.21875 -0.15625 0.46875 -0.40625q0.25 -0.265625 0.546875 -0.640625l0 -4.234375l1.109375 0l0 6.375zm7.5934906 -3.515625q0 0.234375 -0.015625 0.390625q0 0.15625 -0.015625 0.296875l-4.484375 0q0 0.96875 0.546875 1.5q0.546875 0.515625 1.578125 0.515625q0.28125 0 0.5625 -0.015625q0.28125 -0.015625 0.53125 -0.046875q0.265625 -0.046875 0.5 -0.09375q0.25 -0.046875 0.453125 -0.109375l0 0.90625q-0.453125 0.125 -1.03125 0.203125q-0.5625 0.078125 -1.171875 0.078125q-0.8125 0 -1.40625 -0.21875q-0.59375 -0.21875 -0.96875 -0.640625q-0.375 -0.421875 -0.5625 -1.03125q-0.171875 -0.625 -0.171875 -1.390625q0 -0.671875 0.1875 -1.265625q0.1875 -0.609375 0.5625 -1.0625q0.375 -0.453125 0.90625 -0.71875q0.546875 -0.265625 1.234375 -0.265625q0.65625 0 1.171875 0.21875q0.515625 0.203125 0.859375 0.59375q0.359375 0.375 0.546875 0.921875q0.1875 0.546875 0.1875 1.234375zm-1.15625 -0.171875q0.015625 -0.421875 -0.09375 -0.765625q-0.09375 -0.359375 -0.3125 -0.609375q-0.203125 -0.25 -0.53125 -0.390625q-0.3125 -0.15625 -0.71875 -0.15625q-0.375 0 -0.671875 0.140625q-0.296875 0.140625 -0.515625 0.40625q-0.203125 0.25 -0.34375 0.609375q-0.125 0.34375 -0.171875 0.765625l3.359375 0zm8.140366 1.953125q0 0.328125 -0.125 0.59375q-0.109375 0.265625 -0.3125 0.484375q-0.1875 0.203125 -0.453125 0.34375q-0.25 0.140625 -0.546875 0.25q-0.296875 0.09375 -0.609375 0.125q-0.3125 0.046875 -0.609375 0.046875q-0.640625 0 -1.1875 -0.0625q-0.546875 -0.046875 -1.0625 -0.171875l0 -1.015625q0.5625 0.15625 1.109375 0.25q0.546875 0.078125 1.09375 0.078125q0.796875 0 1.171875 -0.21875q0.390625 -0.21875 0.390625 -0.625q0 -0.171875 -0.0625 -0.296875q-0.0625 -0.140625 -0.21875 -0.265625q-0.15625 -0.125 -0.5 -0.25q-0.328125 -0.140625 -0.90625 -0.3125q-0.421875 -0.125 -0.796875 -0.28125q-0.359375 -0.171875 -0.625 -0.390625q-0.265625 -0.21875 -0.421875 -0.515625q-0.15625 -0.296875 -0.15625 -0.703125q0 -0.265625 0.125 -0.578125q0.125 -0.328125 0.421875 -0.59375q0.296875 -0.28125 0.796875 -0.453125q0.515625 -0.1875 1.28125 -0.1875q0.375 0 0.828125 0.046875q0.453125 0.03125 0.953125 0.140625l0 0.984375q-0.515625 -0.140625 -0.984375 -0.1875q-0.46875 -0.0625 -0.8125 -0.0625q-0.40625 0 -0.6875 0.0625q-0.28125 0.0625 -0.46875 0.171875q-0.171875 0.109375 -0.25 0.265625q-0.0625 0.140625 -0.0625 0.3125q0 0.171875 0.0625 0.3125q0.0625 0.140625 0.234375 0.28125q0.1875 0.125 0.515625 0.25q0.328125 0.125 0.84375 0.28125q0.5625 0.171875 0.953125 0.359375q0.390625 0.171875 0.625 0.390625q0.25 0.21875 0.34375 0.5q0.109375 0.28125 0.109375 0.640625zm7.3278656 0q0 0.328125 -0.125 0.59375q-0.109375 0.265625 -0.3125 0.484375q-0.1875 0.203125 -0.453125 0.34375q-0.25 0.140625 -0.546875 0.25q-0.296875 0.09375 -0.609375 0.125q-0.3125 0.046875 -0.609375 0.046875q-0.640625 0 -1.1875 -0.0625q-0.546875 -0.046875 -1.0625 -0.171875l0 -1.015625q0.5625 0.15625 1.109375 0.25q0.546875 0.078125 1.09375 0.078125q0.796875 0 1.171875 -0.21875q0.390625 -0.21875 0.390625 -0.625q0 -0.171875 -0.0625 -0.296875q-0.0625 -0.140625 -0.21875 -0.265625q-0.15625 -0.125 -0.5 -0.25q-0.328125 -0.140625 -0.90625 -0.3125q-0.421875 -0.125 -0.796875 -0.28125q-0.359375 -0.171875 -0.625 -0.390625q-0.265625 -0.21875 -0.421875 -0.515625q-0.15625 -0.296875 -0.15625 -0.703125q0 -0.265625 0.125 -0.578125q0.125 -0.328125 0.421875 -0.59375q0.296875 -0.28125 0.796875 -0.453125q0.515625 -0.1875 1.28125 -0.1875q0.375 0 0.828125 0.046875q0.453125 0.03125 0.953125 0.140625l0 0.984375q-0.515625 -0.140625 -0.984375 -0.1875q-0.46875 -0.0625 -0.8125 -0.0625q-0.40625 0 -0.6875 0.0625q-0.28125 0.0625 -0.46875 0.171875q-0.171875 0.109375 -0.25 0.265625q-0.0625 0.140625 -0.0625 0.3125q0 0.171875 0.0625 0.3125q0.0625 0.140625 0.234375 0.28125q0.1875 0.125 0.515625 0.25q0.328125 0.125 0.84375 0.28125q0.5625 0.171875 0.953125 0.359375q0.390625 0.171875 0.625 0.390625q0.25 0.21875 0.34375 0.5q0.109375 0.28125 0.109375 0.640625z" fill-rule="nonzero"></path><path fill="#000000" fill-opacity="0.0" d="m161.90463 42.845665l36.157486 0" fill-rule="nonzero"></path><path stroke="#000000" stroke-width="2.0" stroke-linejoin="round" stroke-linecap="butt" d="m161.90463 42.84567l24.15747 0" fill-rule="evenodd"></path><path fill="#000000" stroke="#000000" stroke-width="2.0" stroke-linecap="butt" d="m186.0621 46.14913l9.076202 -3.303463l-9.076202 -3.3034668z" fill-rule="evenodd"></path><path fill="#c9daf8" d="m310.0974 42.84576l0 0c0 -10.967417 8.890869 -19.858267 19.858276 -19.858267l0 0c5.266754 0 10.31778 2.092205 14.041931 5.816353c3.7241516 3.724146 5.816345 8.775175 5.816345 14.041914l0 0c0 10.967419 -8.890839 19.858269 -19.858276 19.858269l0 0c-10.967407 0 -19.858276 -8.89085 -19.858276 -19.858269z" fill-rule="nonzero"></path><path stroke="#000000" stroke-width="1.0" stroke-linejoin="round" stroke-linecap="butt" d="m310.0974 42.84576l0 0c0 -10.967417 8.890869 -19.858267 19.858276 -19.858267l0 0c5.266754 0 10.31778 2.092205 14.041931 5.816353c3.7241516 3.724146 5.816345 8.775175 5.816345 14.041914l0 0c0 10.967419 -8.890839 19.858269 -19.858276 19.858269l0 0c-10.967407 0 -19.858276 -8.89085 -19.858276 -19.858269z" fill-rule="nonzero"></path><path fill="#000000" d="m327.92834 35.52576l0 -5.734373l4.140625 0l0 0.6875l-3.390625 0l0 1.7499981l3.171875 0l0 0.671875l-3.171875 0l0 1.953125l3.515625 0l0 0.671875l-4.265625 0z" fill-rule="nonzero"></path><path fill="#000000" d="m327.6764 45.52576l0 -5.734375l0.78125 0l3.0 4.5l0 -4.5l0.734375 0l0 5.734375l-0.78125 0l-3.0 -4.5l0 4.5l-0.734375 0z" fill-rule="nonzero"></path><path fill="#000000" d="m327.69202 55.52576l0 -5.734375l1.96875 0q0.671875 0 1.015625 0.09375q0.5 0.109375 0.84375 0.40625q0.453125 0.375 0.671875 0.984375q0.234375 0.59375 0.234375 1.359375q0 0.640625 -0.15625 1.15625q-0.15625 0.5 -0.390625 0.828125q-0.234375 0.328125 -0.53125 0.515625q-0.28125 0.1875 -0.6875 0.296875q-0.390625 0.09375 -0.90625 0.09375l-2.0625 0zm0.75 -0.671875l1.21875 0q0.578125 0 0.890625 -0.109375q0.328125 -0.109375 0.515625 -0.296875q0.265625 -0.265625 0.421875 -0.71875q0.15625 -0.46875 0.15625 -1.109375q0 -0.90625 -0.296875 -1.375q-0.296875 -0.484375 -0.71875 -0.65625q-0.3125 -0.109375 -0.984375 -0.109375l-1.203125 0l0 4.375z" fill-rule="nonzero"></path><path fill="#000000" fill-opacity="0.0" d="m273.91925 42.845158l36.1575 0" fill-rule="nonzero"></path><path stroke="#000000" stroke-width="2.0" stroke-linejoin="round" stroke-linecap="butt" d="m273.91928 42.84516l24.15747 0" fill-rule="evenodd"></path><path fill="#000000" stroke="#000000" stroke-width="2.0" stroke-linecap="butt" d="m298.07675 46.148624l9.076202 -3.303463l-9.076202 -3.3034668z" fill-rule="evenodd"></path><path fill="#000000" fill-opacity="0.0" d="m249.71391 61.33858c-1.6684113 3.2935295 -6.5026245 19.718723 -10.010498 19.761158c-3.5078735 0.042427063 -9.197296 -16.25547 -11.036743 -19.506565" fill-rule="nonzero"></path><path stroke="#000000" stroke-width="2.0" stroke-linejoin="round" stroke-linecap="butt" d="m249.71391 61.33858c-1.6684113 3.2935295 -6.5026245 19.718723 -10.010498 19.761158c-1.7539368 0.021209717 -4.053253 -4.042656 -6.1440277 -8.518211l-0.011917114 -0.025794983" fill-rule="evenodd"></path><path fill="#000000" stroke="#000000" stroke-width="2.0" stroke-linecap="butt" d="m236.56534 71.212105l-6.7094574 -6.947899l0.6737213 9.635162z" fill-rule="evenodd"></path></g></svg>

