<?xml version="1.0" encoding="UTF-8" standalone="no"?>
<!-- Generator: Adobe Illustrator 15.0.0, SVG Export Plug-In . SVG Version: 6.00 Build 0)  -->

<svg
   xmlns:dc="http://purl.org/dc/elements/1.1/"
   xmlns:cc="http://creativecommons.org/ns#"
   xmlns:rdf="http://www.w3.org/1999/02/22-rdf-syntax-ns#"
   xmlns:svg="http://www.w3.org/2000/svg"
   xmlns="http://www.w3.org/2000/svg"
   xmlns:sodipodi="http://sodipodi.sourceforge.net/DTD/sodipodi-0.dtd"
   xmlns:inkscape="http://www.inkscape.org/namespaces/inkscape"
   version="1.1"
   x="0px"
   y="0px"
   width="190.04507"
   height="200.80096"
   viewBox="0 0 190.04507 200.80096"
   enable-background="new 0 0 841.89 595.28"
   xml:space="preserve"
   id="svg2"
   inkscape:version="0.91 r13725"
   sodipodi:docname="err.svg"
   inkscape:export-filename="/home/gbin/Documents/Travail/err/robot-norm.png"
   inkscape:export-xdpi="90"
   inkscape:export-ydpi="90"><metadata
     id="metadata53"><rdf:RDF><cc:Work
         rdf:about=""><dc:format>image/svg+xml</dc:format><dc:type
           rdf:resource="http://purl.org/dc/dcmitype/StillImage" /><dc:title /></cc:Work></rdf:RDF></metadata><defs
     id="defs51"><filter
       id="filter3019"
       inkscape:label="Drop Shadow"
       color-interpolation-filters="sRGB"><feFlood
         id="feFlood3021"
         flood-opacity="0.5"
         flood-color="rgb(0,0,0)"
         result="flood" /><feComposite
         id="feComposite3023"
         in2="SourceGraphic"
         in="flood"
         operator="in"
         result="composite1" /><feGaussianBlur
         id="feGaussianBlur3025"
         stdDeviation="2"
         result="blur" /><feOffset
         id="feOffset3027"
         dx="4"
         dy="4"
         result="offset" /><feComposite
         id="feComposite3029"
         in2="offset"
         in="SourceGraphic"
         operator="over"
         result="composite2" /></filter></defs><sodipodi:namedview
     pagecolor="#ffffff"
     bordercolor="#666666"
     borderopacity="1"
     objecttolerance="10"
     gridtolerance="10"
     guidetolerance="10"
     inkscape:pageopacity="0"
     inkscape:pageshadow="2"
     inkscape:window-width="1680"
     inkscape:window-height="1006"
     id="namedview49"
     showgrid="false"
     inkscape:zoom="2.504"
     inkscape:cx="90.124712"
     inkscape:cy="114.77115"
     inkscape:window-x="195"
     inkscape:window-y="35"
     inkscape:window-maximized="0"
     inkscape:current-layer="svg2"
     fit-margin-top="30"
     fit-margin-left="0"
     fit-margin-right="0"
     fit-margin-bottom="0" /><path
     style="fill:#f07e2a;stroke:#e1ddda;stroke-width:1.99149299;stroke-miterlimit:10;"
     d="m 32.702901,6.9267152 c -0.290065,0.0125 -0.576883,0.0389 -0.871275,0.0778 -4.710288,0.62192 -8.088418,4.4635208 -7.545858,8.5727108 0.455891,3.45278 3.530409,5.991019 7.296923,6.347859 l 3.827383,29.032109 5.258763,-0.68458 -3.8585,-29.296599 c 3.038522,-1.500499 4.944407,-4.497349 4.527515,-7.654759 -0.50865,-3.8523808 -4.283977,-6.5813608 -8.634951,-6.3945408 z"
     id="rect15"
     inkscape:connector-curvature="0"
     inkscape:export-filename="/home/gbin/Documents/err.png"
     inkscape:export-xdpi="299.98703"
     inkscape:export-ydpi="299.98703" /><path
     style="fill:#f07e2a;stroke:#e1ddda;stroke-width:1.99149299;stroke-miterlimit:10;"
     d="m 131.59253,-6.0957147 c -0.29006,0.0124 -0.57688,0.0234 -0.87127,0.0622 -4.71029,0.62145 -8.08797,4.46379 -7.54586,8.5727199 0.45551,3.45254 3.5305,5.99069 7.29692,6.34785 l 3.84294,29.0165498 5.25877,-0.70013 -3.87406,-29.2654798 c 3.04373,-1.49868 4.94445,-4.49455 4.52751,-7.65476998 -0.50822,-3.85211992 -4.28402,-6.56537992 -8.63495,-6.37896992 z"
     id="rect21"
     inkscape:connector-curvature="0"
     inkscape:export-filename="/home/gbin/Documents/err.png"
     inkscape:export-xdpi="299.98703"
     inkscape:export-ydpi="299.98703" /><g
     style=""
     id="Layer_5"
     transform="matrix(0.49787104,0,0,0.49787104,-81.869672,-46.563295)"
     inkscape:export-filename="/home/gbin/Documents/err.png"
     inkscape:export-xdpi="299.98703"
     inkscape:export-ydpi="299.98703"><path
       stroke-miterlimit="10"
       d="m 192.194,347.364 c 0.718,5.442 -6.206,10.845 -15.466,12.067 l 0,0 c -9.259,1.222 -17.348,-2.2 -18.066,-7.642 l -3.845,-29.133 c -0.718,-5.441 6.206,-10.845 15.465,-12.066 l 0,0 c 9.26,-1.223 17.349,2.199 18.067,7.642 l 3.845,29.132 z"
       id="path26"
       inkscape:connector-curvature="0"
       style="fill:#f07e2a;stroke:#e1ddda;stroke-width:4;stroke-miterlimit:10;" /><path
       stroke-miterlimit="10"
       d="m 552.425,300.744 c 0.719,5.442 -6.206,10.845 -15.466,12.067 l 0,0 c -9.259,1.222 -17.349,-2.198 -18.066,-7.642 l -3.845,-29.131 c -0.719,-5.443 6.207,-10.845 15.466,-12.068 l 0,0 c 9.26,-1.222 17.349,2.2 18.067,7.641 l 3.844,29.133 z"
       id="path28"
       inkscape:connector-curvature="0"
       style="fill:#f07e2a;stroke:#e1ddda;stroke-width:4;stroke-miterlimit:10;" /></g><g
     id="g3005"
     inkscape:export-filename="/home/gbin/Documents/err.png"
     inkscape:export-xdpi="299.98703"
     inkscape:export-ydpi="299.98703"
     style=""><g
       transform="matrix(0.49787104,0,0,0.49787104,-81.869672,-46.563295)"
       id="Layer_1"
       style=""><path
         style="fill:#f07e2a;stroke:#e1ddda;stroke-width:4;stroke-miterlimit:10;"
         inkscape:connector-curvature="0"
         id="path10"
         d="m 526.814,430.41 c 0.681,5.149 -3.567,9.958 -9.484,10.74 l -288.442,38.068 c -5.918,0.78 -11.266,-2.763 -11.946,-7.912 L 183.806,220.24 c -0.68,-5.152 3.566,-9.96 9.483,-10.741 l 288.443,-38.068 c 5.918,-0.781 11.267,2.761 11.946,7.913 l 33.136,251.066 z"
         stroke-miterlimit="10" /></g><g
       transform="matrix(0.49787104,0,0,0.49787104,-81.869672,-46.563295)"
       id="Layer_2"
       style=""><path
         style="fill:#ffffff;"
         inkscape:connector-curvature="0"
         id="path31"
         d="m 320.916,329.627 c 0.867,6.569 -3.756,12.6 -10.327,13.467 l -71.702,9.464 c -6.57,0.867 -12.6,-3.758 -13.467,-10.328 l -9.174,-69.515 c -0.867,-6.57 3.757,-12.6 10.327,-13.466 l 71.702,-9.463 c 6.57,-0.867 12.6,3.756 13.467,10.327 l 9.174,69.514 z" /><path
         style="fill:#ffffff;"
         inkscape:connector-curvature="0"
         id="path33"
         d="m 479.964,308.635 c 0.867,6.57 -3.757,12.602 -10.328,13.468 l -71.701,9.463 c -6.57,0.868 -12.6,-3.757 -13.467,-10.326 l -9.174,-69.515 c -0.868,-6.57 3.756,-12.6 10.326,-13.467 l 71.702,-9.463 c 6.57,-0.867 12.601,3.756 13.467,10.327 l 9.175,69.513 z" /></g><g
       transform="matrix(0.49787104,0,0,0.49787104,-81.869672,-46.563295)"
       id="Layer_6"
       style=""><path
         style="fill:#273069;stroke:#000000;stroke-width:9;stroke-miterlimit:10;"
         inkscape:connector-curvature="0"
         id="path36"
         d="M 266.738,437.14"
         stroke-miterlimit="10" /><g
         id="g38"
         style=""><line
           id="line40"
           y2="426.401"
           x2="297.228"
           y1="390.26801"
           x1="440.15701"
           style="" /><polygon
           style="fill:#273069;"
           id="polygon42"
           points="441.873,397.054 297.228,426.401 438.441,383.481 " /></g></g><g
       transform="matrix(0.49787104,0,0,0.49787104,-81.869672,-46.563295)"
       id="Layer_3"
       style=""><ellipse
         style="fill:#273069;stroke:#000000;stroke-miterlimit:10;"
         sodipodi:ry="11.029"
         sodipodi:rx="10.662"
         sodipodi:cy="272.22501"
         sodipodi:cx="285.60199"
         id="ellipse45"
         ry="11.029"
         rx="10.662"
         cy="272.22501"
         cx="285.60199"
         stroke-miterlimit="10"
         transform="matrix(0.9914,-0.1308,0.1308,0.9914,-33.1576,39.7013)" /><ellipse
         style="fill:#273069;stroke:#000000;stroke-miterlimit:10;"
         sodipodi:ry="11.029"
         sodipodi:rx="10.662"
         sodipodi:cy="250.666"
         sodipodi:cx="448.94901"
         id="ellipse47"
         ry="11.029"
         rx="10.662"
         cy="250.666"
         cx="448.94901"
         stroke-miterlimit="10"
         transform="matrix(0.9914,-0.1309,0.1309,0.9914,-28.9422,60.9065)" /></g></g></svg>